<svg version="1.2" xmlns="http://www.w3.org/2000/svg" viewBox="0 0 16 16" width="16" height="16">
	<title>Union1-svg1</title>
	<style>
		.s0 { fill: #000000 } 
	</style>
	<path fill-rule="evenodd" class="s0" d="m7.5 3h-1.1c-0.4-0.8-1.2-1.4-2.2-1.4-1.4 0-2.5 1.1-2.5 2.4 0 1.3 1.1 2.4 2.5 2.4 0.9 0 1.8-0.5 2.2-1.4h1.1v2.3h-6.7v-6.6h6.7zm7.8 2v2.3h-6.7v-6.7h6.7v3.4h-5.8c0 1.4 1.1 2.4 2.4 2.4 1 0 1.9-0.6 2.3-1.4zm-3.4-3.5c-1.1 0-2 0.6-2.3 1.7h4.6c-0.3-1.1-1.2-1.7-2.3-1.7zm3.4 6.9v6.7h-6.7v-6.7zm-0.9 3.3c0-1.3-1.1-2.4-2.5-2.4-1.3 0-2.4 1.1-2.4 2.4 0 1.4 1.1 2.5 2.4 2.5 1.4 0 2.5-1.1 2.5-2.5zm-7.7 1.1h1.1v2.3h-7v-6.7h1.2v3.3c0 1.5 1.1 2.5 2.4 2.5 1 0 1.9-0.5 2.3-1.4z"/>
</svg>