<svg version="1.2" xmlns="http://www.w3.org/2000/svg" viewBox="0 0 41 40" width="41" height="40">
	<style>
		.s0 { fill: #ffffff } 
		.s1 { fill: #000000 } 
	</style>
	<path fill-rule="evenodd" class="s0" d="m20.8 0c11.05 0 20 8.95 20 20 0 11.05-8.95 20-20 20-11.04 0-20-8.95-20-20 0-11.05 8.96-20 20-20z"/>
	<path class="s1" d="m35.83 20.47c0 10.03-6.13 13.24-9.37 10.38-2.66-2.34-3.45-7.27-7.45-7.78-5.08-0.64-5.52 6.13-8.86 6.13-3.9 0-4.64-5.67-4.64-8.57 0-2.98 0.83-7.03 4.15-7.03 3.87 0 4.09 5.79 8.93 5.48 4.82-0.33 4.9-6.36 8.03-8.94 2.72-2.23 9.21 0.17 9.21 10.33z"/>
</svg>