<svg width="17" height="16" viewBox="0 0 17 16" fill="none" xmlns="http://www.w3.org/2000/svg">
<path d="M1.79538 1.01888C1.53426 1.00557 1.26406 0.99175 1.03494 1.18135C0.920193 1.2763 0.77411 1.42484 0.830248 1.61771C0.835782 1.6368 0.842986 1.65537 0.851779 1.6732C0.854208 1.67808 0.85751 1.68215 0.860146 1.68684C0.866538 1.69883 0.873762 1.71035 0.881766 1.72133C0.885335 1.72597 0.889822 1.72981 0.893613 1.7342C0.901788 1.74406 0.91064 1.75335 0.920104 1.76199C0.924651 1.76594 0.930071 1.76909 0.934913 1.77279C0.945054 1.78089 0.955708 1.78833 0.96681 1.79507C0.972407 1.79831 0.978834 1.80076 0.984728 1.80372C0.996739 1.81003 1.0091 1.81565 1.02175 1.82056C1.02858 1.82307 1.03623 1.82485 1.04338 1.82705C1.05671 1.8312 1.07013 1.83535 1.08465 1.83843C1.09312 1.84022 1.10242 1.84126 1.11131 1.84269C1.12567 1.845 1.13995 1.84737 1.15532 1.84873C1.16606 1.84967 1.17764 1.84985 1.18886 1.85034C1.2004 1.85083 1.21122 1.85198 1.22329 1.85198C1.22963 1.85198 1.23607 1.85198 1.24254 1.85179C1.51492 1.84611 1.79218 1.8475 2.06016 1.84899C2.13875 1.84941 2.21732 1.84971 2.29588 1.84991C2.32183 1.85 2.34771 1.85019 2.37374 1.85024C2.37192 1.86355 2.3698 1.8765 2.36782 1.88955C2.36533 1.90533 2.36302 1.92131 2.36019 1.93673C2.35723 1.95254 2.3539 1.9678 2.35064 1.98318C2.34749 1.99814 2.34453 2.01329 2.34103 2.02788C2.3374 2.04303 2.33324 2.05759 2.32926 2.07226C2.32544 2.08641 2.32186 2.10074 2.31765 2.1145C2.31331 2.12887 2.30841 2.14261 2.3037 2.15662C2.29926 2.16994 2.29492 2.18355 2.29008 2.19657C2.28498 2.21027 2.27931 2.22338 2.27379 2.23668C2.26865 2.24918 2.26373 2.26192 2.25824 2.27407C2.2524 2.28703 2.24598 2.29935 2.23976 2.31191C2.23394 2.32366 2.22836 2.33567 2.2222 2.34708C2.21559 2.35931 2.20838 2.37093 2.20138 2.38278C2.19492 2.39373 2.1887 2.40497 2.1819 2.41555C2.1745 2.42709 2.1665 2.43796 2.15873 2.44909C2.1516 2.45928 2.14475 2.4698 2.1373 2.4796C2.1291 2.49043 2.12027 2.5006 2.11168 2.51103C2.10394 2.52043 2.09647 2.53011 2.0884 2.53915C2.07936 2.54932 2.06964 2.55884 2.06018 2.56859C2.05186 2.57717 2.04389 2.58606 2.0352 2.59433C2.02525 2.60384 2.01461 2.61266 2.00425 2.62176C1.99536 2.62953 1.9868 2.63763 1.97759 2.64511C1.96663 2.65398 1.95497 2.66224 1.94353 2.6707C1.93422 2.67763 1.92525 2.68489 1.91565 2.69152C1.90354 2.69986 1.8907 2.70751 1.87813 2.7154C1.8685 2.72143 1.85922 2.72784 1.84931 2.73361C1.83576 2.74151 1.82147 2.74866 1.8074 2.75604C1.79775 2.76111 1.78849 2.76656 1.77858 2.7714C1.76247 2.77925 1.74558 2.78637 1.72881 2.79359C1.72028 2.79727 1.71214 2.80135 1.70345 2.80488C1.67765 2.81532 1.65111 2.82507 1.62384 2.83413C1.58624 2.84658 1.54854 2.85727 1.51072 2.86619C1.49869 2.86904 1.48664 2.87074 1.4746 2.87329C1.44882 2.87872 1.42305 2.8844 1.39723 2.88842C1.37984 2.89114 1.36246 2.89258 1.34506 2.89471C1.32462 2.89721 1.30417 2.90029 1.28374 2.90203C1.263 2.90382 1.24227 2.9044 1.22154 2.90547C1.20453 2.90634 1.18748 2.9078 1.1705 2.90823C1.14818 2.9088 1.12598 2.90835 1.10374 2.90823C1.08842 2.90823 1.073 2.90856 1.05772 2.90823C1.03434 2.90766 1.01113 2.90625 0.987882 2.90507C0.973873 2.90434 0.959746 2.90402 0.945812 2.9031C0.922459 2.90162 0.899329 2.89944 0.876213 2.89745C0.862471 2.89626 0.848625 2.89536 0.834942 2.89404C0.814314 2.89206 0.793938 2.88969 0.773473 2.88746C0.758206 2.88579 0.74282 2.88428 0.727656 2.8825C0.128084 2.40497 -0.0744932 1.72239 0.185673 1.05571C0.454577 0.36677 1.03102 0.0290328 1.85163 0.0787731C2.03647 0.140353 2.21536 0.218507 2.38611 0.312281L2.38673 0.31265C2.41466 0.328589 2.44217 0.34517 2.46927 0.362391L2.46994 0.362835C2.49698 0.380076 2.52354 0.398017 2.54962 0.416658L2.5506 0.417383C2.57648 0.435966 2.60185 0.455303 2.62668 0.475394L2.6287 0.477095C2.65302 0.496911 2.67679 0.517505 2.7 0.538879L2.70407 0.542829C2.72636 0.563542 2.74808 0.585068 2.76923 0.607409C2.7716 0.609924 2.77382 0.612631 2.77619 0.615176C2.7959 0.636407 2.81518 0.658229 2.83373 0.680998C2.83767 0.685821 2.84136 0.691 2.84524 0.695897C2.86171 0.716609 2.87782 0.737825 2.89329 0.759899C2.89911 0.768229 2.90452 0.777061 2.91017 0.785568C2.92291 0.804683 2.93551 0.824035 2.94746 0.844082C2.9555 0.857649 2.96298 0.871911 2.97062 0.885952C2.97921 0.901634 2.98789 0.917213 2.99599 0.933487C3.00635 0.954526 3.01613 0.976393 3.02569 0.998481C3.02908 1.00623 3.03259 1.01382 3.03588 1.02171L1.92918 1.02467C1.88476 1.0234 1.84007 1.02116 1.79538 1.01888Z" fill="#CBA68D"/>
<path d="M1.14574 2.98264C1.13686 2.98264 1.12797 2.98257 1.11909 2.9825L1.10329 2.98236H1.08649L1.05583 2.98223C1.03657 2.98176 1.01732 2.98075 0.998221 2.97971L0.697924 2.95354L0.681398 2.94037C0.0553486 2.44167 -0.155743 1.72709 0.116729 1.02889C0.398338 0.30714 0.999879 -0.0469016 1.85615 0.00498404L1.8762 0.00900824C2.06541 0.0717111 2.24842 0.151741 2.4229 0.248079C2.45251 0.264989 2.48106 0.282107 2.50915 0.300068C2.53801 0.318487 2.56571 0.337144 2.59285 0.356584C2.62099 0.376779 2.64749 0.396974 2.67344 0.418012C2.70107 0.440589 2.72605 0.462145 2.75044 0.484589C2.77816 0.510554 2.80105 0.533146 2.82325 0.556685C2.85139 0.587251 2.8717 0.610272 2.89127 0.634269L2.90341 0.649966C2.92078 0.671878 2.93782 0.694233 2.95411 0.717534L2.96621 0.735777C2.98546 0.76476 2.99867 0.785103 3.01127 0.806333C3.01792 0.817577 3.02419 0.829132 3.03043 0.840687L2.97416 0.892025L3.0391 0.856517C3.04705 0.871016 3.05499 0.885515 3.06249 0.900591C3.07353 0.922902 3.08379 0.945908 3.09386 0.969136L3.14702 1.09544L1.92959 1.09875C1.8835 1.09747 1.83948 1.09523 1.79545 1.093L1.79149 1.09281C1.53318 1.07965 1.2892 1.06724 1.08239 1.23836C0.92341 1.36991 0.867671 1.48057 0.901567 1.5971C0.905891 1.61202 0.911515 1.62653 0.918375 1.64047C0.929896 1.65946 0.934664 1.66847 0.94075 1.67638C0.956625 1.69357 0.962266 1.70039 0.968975 1.70623C0.988373 1.72035 0.995748 1.72623 1.00417 1.7311L1.01823 1.73767C1.02776 1.74273 1.03758 1.74725 1.04762 1.75121L1.04362 1.82711L1.06552 1.75644C1.07737 1.7601 1.08828 1.76359 1.10022 1.76611L1.12332 1.7697C1.1376 1.77201 1.1494 1.77398 1.16204 1.77509L1.2235 1.77805L1.24127 1.77787C1.5202 1.77204 1.8074 1.77365 2.0608 1.77506L2.45879 1.7764L2.44222 1.89417L2.37376 1.90262L2.43918 1.91269L2.42538 1.9879L2.34825 1.99494L2.42081 2.00993L2.40363 2.08146L2.32632 2.08377L2.39787 2.10276L2.3774 2.17024L2.30006 2.16798L2.37036 2.19122L2.34643 2.25525L2.26942 2.24774L2.33807 2.27543L2.31087 2.33549L2.23468 2.32256L2.30132 2.3549L2.28747 2.38234C2.2821 2.39231 2.27638 2.4019 2.27064 2.41149L2.19563 2.39296L2.25972 2.42995L2.24435 2.45555C2.23834 2.46494 2.23197 2.47397 2.22557 2.48299L2.15227 2.4587L2.21336 2.50049L2.19648 2.52428C2.18978 2.53316 2.18273 2.54161 2.17575 2.55006L2.10446 2.52022L2.16211 2.56664L2.14389 2.58843C2.13649 2.59673 2.12873 2.60471 2.12094 2.61259L2.05218 2.57723L2.10597 2.62808L2.08654 2.64788C2.07844 2.65563 2.06995 2.663 2.06145 2.67034L1.99553 2.62979L2.04506 2.68476L2.02451 2.70252C2.01555 2.70981 2.00619 2.71671 1.9968 2.72359L1.93413 2.67805L1.97918 2.73675L1.95793 2.75244C1.94796 2.7593 1.93757 2.76575 1.92716 2.77222L1.868 2.72209L1.90835 2.7841L1.88682 2.79756C1.87549 2.80416 1.86371 2.81031 1.8519 2.81644L1.79668 2.76199L1.8323 2.82685L1.81133 2.83789C1.79662 2.84507 1.78131 2.85168 1.766 2.85828L1.71861 2.79833L1.74955 2.86553L1.73148 2.87347C1.70422 2.88452 1.67617 2.89483 1.64736 2.90439C1.60771 2.91753 1.56795 2.9288 1.52808 2.9382L1.50312 2.94323L1.47481 2.87332L1.47985 2.94788C1.45615 2.95289 1.43255 2.95788 1.40887 2.96156C1.39645 2.96351 1.38401 2.96489 1.37157 2.96624L1.33635 2.97048C1.32098 2.97249 1.30561 2.97448 1.29027 2.97579C1.27444 2.97715 1.25865 2.97788 1.24288 2.97859L1.17254 2.98223C1.16348 2.98251 1.15461 2.98264 1.14574 2.98264ZM1.10414 2.83443L1.12043 2.83455C1.13646 2.8347 1.15248 2.83486 1.16858 2.83444L1.23606 2.83091C1.24984 2.83029 1.26364 2.82969 1.27745 2.82851C1.29061 2.82739 1.30376 2.82555 1.31692 2.82391L1.38583 2.81551C1.40688 2.81222 1.42791 2.80772 1.44893 2.80327L1.4936 2.79439C1.52935 2.78589 1.565 2.77579 1.60056 2.76408C1.6263 2.75556 1.65133 2.74636 1.67565 2.73649L1.69944 2.72588C1.72036 2.71687 1.7335 2.71123 1.7461 2.70508L1.78343 2.68528C1.7931 2.68025 1.80278 2.67527 1.81205 2.66987L2.06188 2.45527L2.20957 2.19835L2.28721 1.92397L2.05977 1.92308C1.80726 1.92167 1.5211 1.92012 1.24408 1.92586L1.22328 1.92607C1.21393 1.92607 1.20521 1.92555 1.19647 1.92499L1.17902 1.85008L1.17644 1.92406C1.16705 1.92372 1.15765 1.92336 1.14875 1.92258C1.13246 1.9211 1.11721 1.91874 1.10195 1.91627C1.08401 1.91363 1.07642 1.91247 1.0693 1.91096C1.05282 1.90749 1.03755 1.90285 1.02233 1.89815C1.00875 1.89429 1.00222 1.89238 0.996133 1.89013C0.981095 1.88435 0.966396 1.87772 0.952108 1.87028C0.941194 1.86526 0.935271 1.86245 0.929792 1.85928C0.916192 1.85112 0.903134 1.8421 0.890698 1.83225C0.884085 1.82785 0.877713 1.82309 0.87161 1.81801C0.859988 1.80752 0.849103 1.79624 0.839032 1.78426C0.833386 1.77865 0.828071 1.77273 0.823113 1.76651C0.812964 1.75274 0.8038 1.73828 0.795688 1.72323C0.791926 1.71777 0.788522 1.71206 0.7855 1.70616C0.774768 1.68442 0.765977 1.66178 0.75923 1.6385C0.682982 1.37662 0.912363 1.1868 0.987707 1.12441C1.23891 0.916525 1.53635 0.931675 1.79879 0.945035L1.79537 1.01892L1.79913 0.94505L1.80275 0.945227C1.8457 0.947417 1.88864 0.949666 1.93128 0.95082L2.92019 0.948113C2.91651 0.941248 2.91278 0.934442 2.90904 0.927636L2.88373 0.881772C2.8725 0.862879 2.86057 0.844682 2.84854 0.826617L2.83258 0.802294C2.81802 0.781478 2.80276 0.761505 2.78721 0.741887L2.83374 0.68105L2.77634 0.727773C2.75879 0.706261 2.74055 0.685622 2.7219 0.665545C2.69535 0.636991 2.67472 0.616722 2.65361 0.596986C2.62771 0.572855 2.60508 0.553341 2.58194 0.534507C2.55636 0.513661 2.53212 0.495256 2.50742 0.477517C2.48151 0.45892 2.45604 0.441758 2.43012 0.425232C2.40347 0.408218 2.37692 0.392284 2.35002 0.376942C2.18621 0.286509 2.01446 0.211235 1.83692 0.15206C1.05658 0.107823 0.509607 0.429449 0.254698 1.08263C0.00944293 1.71111 0.19733 2.35587 0.757172 2.81135L0.991676 2.83122C1.0239 2.83292 1.04167 2.83388 1.05956 2.83433L1.08553 2.83441L1.10414 2.83443Z" fill="#2B2129"/>
<path d="M1.96415 1.08971C1.97155 1.09555 1.97882 1.10154 1.98615 1.10755C1.99316 1.11323 2.00018 1.11881 2.00712 1.12459C2.01432 1.1306 2.02138 1.13683 2.02852 1.14295C2.03566 1.14908 2.04256 1.15479 2.04947 1.16099C2.05575 1.16655 2.06185 1.17238 2.06806 1.17806C2.07567 1.18503 2.08337 1.1919 2.09086 1.19904L2.09184 1.20002C2.15958 1.26335 2.21863 1.33536 2.26745 1.41417L2.26788 1.41485C2.27727 1.43043 2.28616 1.44638 2.29454 1.4627L2.29556 1.46456C2.30364 1.48041 2.31114 1.49668 2.31817 1.51325L2.31977 1.51679C2.32648 1.53281 2.33252 1.54934 2.33816 1.566L2.34022 1.57169C2.34546 1.58766 2.34998 1.60408 2.35416 1.6207C2.35491 1.62365 2.35584 1.62654 2.35655 1.62957C2.36027 1.64517 2.36323 1.66123 2.36597 1.67742C2.36671 1.68186 2.36769 1.68609 2.36836 1.69053C2.37059 1.70532 2.37203 1.7206 2.37341 1.73592C2.37398 1.74228 2.3748 1.74848 2.37521 1.75494C2.3761 1.76851 2.3762 1.78254 2.37638 1.79652C2.37638 1.80334 2.37668 1.81007 2.37659 1.81698C2.2708 1.81684 2.16499 1.81643 2.05917 1.81575C1.98438 1.81529 1.90773 1.81529 1.83185 1.81501C1.63592 1.81436 1.43826 1.81436 1.24199 1.81853C1.02862 1.82198 0.904884 1.75428 0.862444 1.60844C0.811725 1.4344 0.948835 1.29596 1.05643 1.20697C1.07411 1.19251 1.09253 1.17898 1.11162 1.16643C1.1164 1.16326 1.1212 1.16016 1.12603 1.15714C1.14352 1.14615 1.16119 1.13591 1.17913 1.1269L1.18295 1.12483C1.20213 1.11535 1.22159 1.10724 1.24121 1.09977C1.24629 1.09784 1.2514 1.09601 1.25651 1.0942C1.27401 1.08802 1.29165 1.08237 1.30946 1.07763C1.31189 1.07697 1.3143 1.07616 1.31675 1.07552C1.33665 1.07036 1.35673 1.06618 1.37697 1.06253C1.38235 1.06157 1.38777 1.06069 1.39317 1.05982C1.41057 1.05701 1.42806 1.05461 1.44564 1.05273C1.44898 1.05238 1.45232 1.05188 1.45566 1.05155C1.47601 1.04957 1.49649 1.04819 1.51701 1.04722C1.5227 1.04695 1.5284 1.04676 1.53409 1.04657C1.55114 1.04594 1.56821 1.04559 1.58529 1.04551C1.58926 1.04551 1.59323 1.0454 1.59722 1.04541C1.62856 1.04541 1.66 1.04624 1.69141 1.04742L1.69599 1.04757C1.72868 1.04886 1.76136 1.05053 1.7939 1.05216C1.83704 1.05438 1.88019 1.0566 1.92313 1.05788C1.92944 1.06268 1.93573 1.06762 1.94204 1.0725C1.94934 1.07821 1.95676 1.08386 1.96415 1.08971Z" fill="#2B2129"/>
<path d="M1.22738 1.89259C0.988639 1.89259 0.842037 1.80399 0.791141 1.62907C0.720965 1.38821 0.937743 1.20889 1.00897 1.14997C1.02863 1.13388 1.0491 1.11881 1.07032 1.10484L1.08637 1.09448C1.10589 1.08222 1.12562 1.07081 1.14561 1.06078C1.16807 1.04952 1.19111 1.03945 1.21463 1.03062L1.23155 1.02445C1.2508 1.01761 1.27032 1.01146 1.28993 1.00617C1.31963 0.998259 1.34155 0.993673 1.36358 0.989708L1.38007 0.986926C1.39978 0.983745 1.41857 0.981186 1.43745 0.979144C1.46976 0.975786 1.49145 0.974336 1.51321 0.973226L1.52802 0.972634C1.55042 0.971835 1.56955 0.971421 1.58842 0.971436C1.63111 0.971436 1.66246 0.97222 1.6939 0.973404L1.79736 0.978182C1.84003 0.980372 1.88267 0.982517 1.92511 0.983834L1.94881 0.984574L1.98116 1.00933L1.94807 1.07728L1.99328 1.01869L2.02627 1.04485L1.99258 1.1128L2.03908 1.05523L2.07006 1.08111L2.03501 1.14857L2.08306 1.09235L2.11154 1.11761L2.0742 1.1838L2.12402 1.12906L2.14179 1.14553C2.21477 1.21359 2.27832 1.29108 2.33076 1.37596C2.34148 1.39371 2.35113 1.41112 2.36027 1.42892C2.37025 1.44835 2.37847 1.46618 2.38618 1.48436C2.39531 1.50586 2.40197 1.52397 2.40818 1.54237C2.4162 1.56623 2.42121 1.58431 2.42581 1.60263C2.43252 1.62953 2.43581 1.64719 2.43883 1.66502C2.44386 1.69567 2.44549 1.71236 2.447 1.72923L2.44896 1.75013C2.44985 1.7638 2.45005 1.77793 2.45023 1.79206L2.45047 1.81792L2.44948 1.891L1.83145 1.88897C1.63612 1.8883 1.43903 1.88832 1.2434 1.89248C1.238 1.89256 1.23265 1.89259 1.22738 1.89259ZM1.37673 1.0625L1.38988 1.1353C1.37149 1.13862 1.3532 1.14241 1.33509 1.14714C1.31254 1.15337 1.2967 1.1584 1.28098 1.16396C1.25871 1.17185 1.23687 1.18092 1.21556 1.19114C1.19631 1.20098 1.18069 1.21006 1.16521 1.21978L1.15242 1.22792C1.13547 1.23903 1.11911 1.25103 1.10342 1.26386C0.956046 1.38577 0.903595 1.48563 0.93333 1.58769C0.955143 1.66267 1.00976 1.7482 1.24059 1.74451C1.43709 1.74034 1.63536 1.74033 1.8319 1.74099L2.35204 1.74283L2.37321 1.73583L2.29948 1.74244C2.29824 1.72862 2.29696 1.71482 2.29495 1.70146C2.29032 1.67512 2.28768 1.66067 2.28433 1.64663C2.27841 1.62379 2.27437 1.60902 2.26967 1.59468C2.26273 1.57452 2.25731 1.55969 2.25127 1.54528C2.24346 1.52712 2.23671 1.51243 2.22939 1.4981C2.22087 1.48161 2.21284 1.46703 2.20431 1.45295C2.15883 1.37946 2.10375 1.31236 2.04052 1.25343L1.89652 1.13095C1.86105 1.12962 1.82544 1.12783 1.7899 1.12601L1.69286 1.1214C1.65785 1.12011 1.62731 1.11934 1.59684 1.1193C1.56906 1.11947 1.55278 1.11981 1.5365 1.12041L1.51676 1.04713L1.5203 1.12103C1.50105 1.12194 1.4818 1.12322 1.46264 1.12508C1.43706 1.12794 1.42088 1.13016 1.40477 1.13276L1.37673 1.0625Z" fill="#2B2129"/>
<path d="M2.60372 3.21399C2.16167 3.24177 1.71788 3.21913 1.28096 3.1465C1.09197 3.12014 0.913997 3.04192 0.766846 2.92054C0.773495 2.92128 0.780277 2.92183 0.786955 2.92254C0.806473 2.92461 0.826054 2.92654 0.8457 2.92834C0.860508 2.92971 0.875242 2.93101 0.890125 2.93223C0.910012 2.93385 0.929988 2.93519 0.949994 2.93646C0.964936 2.93741 0.979833 2.93834 0.994819 2.93906C1.0148 2.94002 1.0348 2.94054 1.05493 2.94109C1.07005 2.94149 1.08513 2.94195 1.10031 2.94205C1.10569 2.94205 1.111 2.94239 1.1164 2.94239C1.1258 2.94239 1.13529 2.94165 1.14471 2.94152C1.17087 2.94119 1.19706 2.94047 1.22331 2.93912C1.23862 2.93834 1.2539 2.93724 1.26922 2.93609C1.29492 2.93414 1.32063 2.9315 1.34637 2.92839C1.3615 2.92656 1.37662 2.92476 1.39177 2.92248C1.4193 2.91836 1.4468 2.9131 1.47431 2.90745C1.48737 2.90477 1.50043 2.90255 1.51349 2.8995C1.55386 2.89003 1.5942 2.87917 1.63442 2.86584C1.6627 2.85646 1.69021 2.84636 1.71694 2.83553C2.114 2.6746 2.34015 2.35113 2.40748 1.85037H2.40935L2.40985 1.83497L2.41212 1.81709H2.40975C2.40996 1.79961 2.41006 1.78216 2.40923 1.76531C2.40888 1.7578 2.4079 1.75063 2.40734 1.74324C2.40621 1.72855 2.40516 1.71381 2.40328 1.69958C2.40214 1.69088 2.40042 1.68255 2.39901 1.67403C2.39694 1.66153 2.39499 1.64896 2.39235 1.63682C2.39045 1.62804 2.38806 1.61958 2.38588 1.61099C2.38292 1.59955 2.38015 1.58807 2.37679 1.57696C2.37417 1.56833 2.37114 1.56 2.36826 1.55157C2.36461 1.54095 2.361 1.53031 2.35694 1.51997C2.35366 1.51156 2.35004 1.5034 2.34647 1.49517C2.34218 1.48523 2.33787 1.47532 2.33315 1.46558C2.32924 1.45746 2.32506 1.44951 2.3209 1.44157C2.316 1.43222 2.31104 1.4229 2.30581 1.41378C2.30137 1.40599 2.29669 1.39832 2.29198 1.39069C2.28653 1.38181 2.28099 1.37305 2.27526 1.36443C2.27028 1.35694 2.26518 1.34955 2.25998 1.34224C2.25406 1.33388 2.24802 1.32562 2.24187 1.31746C2.23642 1.31025 2.23088 1.30311 2.22525 1.29606C2.21891 1.28812 2.21244 1.28028 2.20587 1.27252C2.20006 1.26567 2.19424 1.25888 2.18831 1.25218C2.18154 1.24458 2.17465 1.2371 2.16772 1.22968C2.16158 1.22312 2.15546 1.21658 2.1492 1.21016C2.14213 1.20293 2.13497 1.19584 2.12776 1.18877C2.12139 1.18253 2.11504 1.17627 2.1085 1.17014C2.1011 1.1632 2.0937 1.15641 2.08629 1.14962C2.07973 1.1437 2.07322 1.13768 2.0666 1.13187C2.059 1.1252 2.05132 1.11869 2.04363 1.11215C2.03698 1.1065 2.0303 1.10078 2.02368 1.09524C2.01576 1.08868 2.00781 1.08232 1.99986 1.07593C1.99333 1.07066 1.98683 1.06534 1.98027 1.06017L1.97758 1.05801L3.05188 1.05505C3.06167 1.06911 3.06995 1.08352 3.07873 1.09781C3.08672 1.11085 3.09558 1.12369 3.10278 1.1369C3.11126 1.15246 3.1181 1.16834 3.12554 1.18409C3.13186 1.19753 3.13897 1.2108 3.14458 1.22435C3.15119 1.2403 3.15632 1.25643 3.16201 1.27251C3.16681 1.28611 3.17238 1.29961 3.17651 1.31327C3.18153 1.32966 3.18526 1.34613 3.18945 1.36258C3.19289 1.37601 3.19694 1.38942 3.19982 1.40285C3.2035 1.41981 3.20608 1.43672 3.20903 1.45364C3.21128 1.46654 3.21408 1.47949 3.21594 1.49235C3.21859 1.51071 3.22038 1.52887 3.22226 1.54709C3.22346 1.55832 3.22523 1.56966 3.22612 1.58082C3.22798 1.60223 3.22908 1.6233 3.2302 1.64435C3.23062 1.6521 3.23136 1.66003 3.23168 1.66772C3.23291 1.69634 3.23359 1.72455 3.23393 1.7522C3.23827 2.09944 3.23811 2.45255 3.23798 2.79407C3.23791 2.93237 3.23794 3.07067 3.23807 3.20896C3.0266 3.20337 2.81172 3.20873 2.60372 3.21399Z" fill="#BB9168"/>
<path d="M2.16496 3.29535C1.86352 3.30036 1.56235 3.27478 1.26609 3.21899C1.0637 3.19044 0.873334 3.10588 0.716529 2.97488L0.551758 2.82249L0.774904 2.84702L0.783715 2.90231L0.789786 2.89575L0.794762 2.84897L1.10077 2.86807L1.11635 2.94239L1.11745 2.86841L1.14372 2.8676C1.16889 2.86727 1.19417 2.86658 1.21948 2.86529L1.26361 2.86233C1.2882 2.86047 1.31281 2.85789 1.33746 2.85493L1.3808 2.84931C1.40701 2.84541 1.43318 2.84036 1.45936 2.83499L1.49657 2.82746C1.5348 2.81851 1.573 2.80823 1.61108 2.79562C1.63783 2.78674 1.66383 2.7772 1.68909 2.76698C2.05945 2.61686 2.27044 2.31381 2.33407 1.84051L2.33586 1.82719L2.33565 1.81623C2.33583 1.80024 2.33596 1.7843 2.33521 1.76889L2.40726 1.74322L2.33344 1.74884C2.33226 1.73335 2.33137 1.72109 2.3298 1.7092L2.28011 1.52837L2.16734 1.3422L1.93436 1.11827L1.76722 0.986757L1.97729 0.98402L3.09047 0.980957L3.11269 1.01278C3.12099 1.02462 3.12837 1.03682 3.13571 1.04897L3.14953 1.07124C3.15593 1.08125 3.16226 1.0913 3.16783 1.10149C3.17488 1.11444 3.18098 1.12754 3.18708 1.14067L3.19874 1.1652C3.20379 1.17544 3.20878 1.18567 3.21307 1.19604C3.21851 1.20917 3.22311 1.22239 3.22766 1.23565L3.23668 1.26089C3.24048 1.27111 3.24424 1.28134 3.24738 1.29162C3.25145 1.30494 3.25479 1.31825 3.25812 1.33167L3.26481 1.35755C3.26749 1.3674 3.27014 1.37727 3.27222 1.38714C3.27518 1.401 3.27759 1.41482 3.27992 1.42863L3.28926 1.48172C3.29153 1.49733 3.29315 1.51279 3.29477 1.52823L3.22391 1.56065L3.29739 1.5516L3.29992 1.57442C3.30177 1.59574 3.30288 1.61674 3.30404 1.63772L3.3057 1.66457C3.30697 1.69392 3.30767 1.72289 3.30802 1.75128C3.31233 2.09665 3.3122 2.44784 3.31206 2.78766L3.31229 3.28492L3.23616 3.28291C3.02511 3.27733 2.81186 3.28273 2.60562 3.28795L2.60376 3.21398L2.60455 3.28795C2.45933 3.29165 2.31254 3.29535 2.16496 3.29535ZM2.60072 3.14009L2.60376 3.21398L2.6018 3.14009C2.78542 3.13545 2.97447 3.13065 3.16398 3.13349V2.79407C3.16412 2.44845 3.16425 2.09791 3.15995 1.75318C3.15961 1.72625 3.15895 1.69879 3.15776 1.67093L3.23032 1.64439L3.15639 1.64834C3.1552 1.62629 3.15418 1.60691 3.15248 1.58727L3.14876 1.555C3.14615 1.53013 3.14476 1.51661 3.14284 1.50296L3.13626 1.46636C3.13208 1.44171 3.13016 1.43014 3.12764 1.41856L3.11784 1.38089C3.11177 1.35647 3.10913 1.34569 3.10584 1.33503L3.09232 1.29723C3.08411 1.27345 3.08057 1.26304 3.0763 1.25274C3.07324 1.24534 3.06956 1.23794 3.06594 1.23069L3.05867 1.21571C3.04794 1.19252 3.04332 1.18236 3.03793 1.17237C3.03399 1.16515 3.0294 1.15808 3.02486 1.15098L3.0158 1.13658L3.01135 1.12919L2.17516 1.13147L2.33713 1.32353L2.42606 1.49293C2.43026 1.50367 2.43405 1.51467 2.43783 1.52567L2.44782 1.5555C2.45111 1.56635 2.45395 1.57747 2.45671 1.58861L2.46484 1.62116C2.46736 1.63279 2.46928 1.64483 2.47134 1.65676L2.47682 1.68991C2.47873 1.70441 2.4799 1.7194 2.48104 1.7344L2.48178 1.74328H2.49388L2.48342 1.84428V1.85276L2.48111 1.92435H2.47137C2.38963 2.41843 2.15151 2.73927 1.74489 2.9041C1.71668 2.91552 1.68766 2.92617 1.65783 2.93605C1.61548 2.95009 1.57301 2.96156 1.53048 2.97156L1.50245 2.97738C1.46047 2.98588 1.43165 2.99139 1.4028 2.99569L1.35706 3.00161C1.3285 3.00506 1.30171 3.00781 1.27491 3.00985L1.22719 3.013C1.19996 3.01439 1.17285 3.01515 1.14575 3.01549L1.11622 3.01636L1.07547 3.01553C1.14755 3.04008 1.22124 3.05962 1.29602 3.07403C1.72702 3.14534 2.16471 3.1675 2.60072 3.14009Z" fill="#2B2129"/>
<path d="M5.6206 15.8873C5.61648 15.8935 5.6129 15.9005 5.60909 15.9071C5.60548 15.9135 5.60145 15.9193 5.59815 15.926H4.91704C4.82309 15.9219 4.73005 15.9059 4.64013 15.8783L4.6136 15.8715C3.76302 15.6658 3.2394 14.9572 3.2472 14.0218C3.26887 11.4104 3.26533 8.75512 3.2619 6.18724C3.26059 5.21055 3.25973 4.23383 3.25931 3.25711V3.23996C3.25905 3.09612 3.259 2.9523 3.25918 2.80848C3.25931 2.46725 3.25946 2.11436 3.25518 1.76735C3.26314 1.5485 3.21666 1.33109 3.11989 1.13459C3.10343 1.10443 3.08528 1.07521 3.06553 1.04709C3.05218 1.01292 3.03786 0.979924 3.02259 0.948115C3.01741 0.93727 3.01159 0.92721 3.0062 0.916616C2.99552 0.895637 2.9849 0.874569 2.97343 0.854581C2.96654 0.842568 2.95905 0.831309 2.95186 0.819636C2.9411 0.802089 2.93042 0.784409 2.91903 0.767632C2.91096 0.755796 2.90239 0.744522 2.89404 0.732997C2.88277 0.717477 2.87159 0.701928 2.85982 0.686985C2.85077 0.675549 2.84129 0.664704 2.83196 0.653667C2.82012 0.639671 2.80827 0.625631 2.79608 0.612242C2.78617 0.601426 2.77593 0.59107 2.76574 0.580625C2.75337 0.567931 2.74099 0.555237 2.72822 0.543076C2.71755 0.532897 2.70661 0.523102 2.69564 0.513293C2.68272 0.501694 2.66975 0.490169 2.65648 0.479058C2.64517 0.469575 2.63365 0.460372 2.62208 0.451214C2.60864 0.440577 2.5951 0.430072 2.58135 0.419879C2.56942 0.411002 2.55738 0.402337 2.54523 0.393884C2.53134 0.384149 2.51732 0.374592 2.50317 0.365212C2.4907 0.356976 2.47811 0.348878 2.46543 0.340918C2.45118 0.332042 2.43681 0.323303 2.42232 0.314702C2.4093 0.306994 2.39626 0.299374 2.38306 0.291947C2.36852 0.283766 2.35385 0.275806 2.33911 0.26795C2.32562 0.26076 2.31215 0.253584 2.29852 0.246646C2.2838 0.239159 2.26891 0.231851 2.2541 0.22469C2.24008 0.217884 2.22608 0.211079 2.21192 0.20451C2.19735 0.197748 2.18268 0.191194 2.16797 0.184714C2.15327 0.178234 2.13859 0.171591 2.12377 0.165274C2.10964 0.159252 2.09541 0.153438 2.0812 0.147623C2.06559 0.141217 2.05001 0.134752 2.03433 0.128538C2.0215 0.123478 2.00862 0.118626 1.99583 0.113743C1.9785 0.1071 1.96121 0.100428 1.94382 0.0939329L1.94043 0.0925866L1.97111 0.0910331C2.05167 0.0869497 2.13495 0.0827184 2.21662 0.0826888C3.20581 0.0824718 4.19475 0.0830439 5.18343 0.084405C7.58049 0.0866538 10.0592 0.0890802 12.4971 0.0739746H12.5075C12.7382 0.075373 12.9663 0.122805 13.1784 0.213485C13.3905 0.304165 13.5823 0.436266 13.7426 0.602033C14.0825 0.940234 14.2746 1.39911 14.277 1.87839C14.2547 4.52034 14.2602 7.20671 14.2654 9.80465C14.2674 10.7842 14.2689 11.7638 14.2699 12.7433C14.2264 12.744 14.1829 12.7449 14.1394 12.7458C14.0374 12.7478 13.9319 12.75 13.8281 12.75C11.4491 12.7508 9.07013 12.7512 6.69113 12.7515L5.73942 12.7517C5.72568 12.7509 5.71189 12.7506 5.69812 12.7502C5.66891 12.7499 5.63975 12.7481 5.61075 12.7446C5.36988 12.7015 5.12182 12.7243 4.89285 12.8105C4.66388 12.8968 4.46252 13.0433 4.31008 13.2345C4.30379 13.2426 4.29761 13.2508 4.29148 13.2591C4.25894 13.3035 4.22906 13.3497 4.20202 13.3976C4.17434 13.4455 4.1494 13.4949 4.12733 13.5456C3.99723 13.8312 3.96686 14.1522 4.04109 14.4571C4.11531 14.762 4.28984 15.0331 4.53669 15.2271L4.57946 15.2671L4.58353 15.2709L4.58366 15.271L4.57946 15.2671L4.68676 15.2977L4.60884 15.2962C4.76322 15.4427 4.96381 15.5311 5.17623 15.546C5.23151 15.5521 5.28714 15.5567 5.34293 15.5602C5.36301 15.5615 5.38313 15.562 5.40324 15.563C5.43908 15.5649 5.4749 15.5669 5.51075 15.568L5.51749 15.5682C5.62687 15.5715 5.73604 15.5723 5.84339 15.573C5.85335 15.573 5.8633 15.5732 5.87327 15.5733C5.94595 15.5738 6.01858 15.5745 6.09117 15.576L6.09083 15.5763C6.07815 15.5898 6.06437 15.6023 6.04964 15.6135C6.04716 15.6154 6.04478 15.6174 6.04223 15.6193C6.02785 15.6298 6.01289 15.6396 5.99742 15.6484L5.98778 15.6539C5.97206 15.6626 5.95589 15.6709 5.93929 15.6788L5.92892 15.6836C5.91279 15.691 5.89647 15.6983 5.87987 15.7057L5.87768 15.7067C5.85843 15.7152 5.83918 15.724 5.81993 15.733C5.81186 15.7368 5.80376 15.7405 5.79578 15.7445C5.79063 15.747 5.78563 15.7499 5.78053 15.7526C5.77228 15.7569 5.76399 15.7612 5.75593 15.7658C5.75055 15.7689 5.74545 15.7724 5.74017 15.7757C5.73265 15.7803 5.72504 15.7849 5.71777 15.7899C5.7125 15.7936 5.70757 15.7977 5.70244 15.8016C5.69556 15.8068 5.68858 15.812 5.68201 15.8177C5.67697 15.822 5.67235 15.827 5.66752 15.8316C5.66138 15.8376 5.65513 15.8434 5.64935 15.8498C5.64469 15.8551 5.64047 15.861 5.63603 15.8666C5.63092 15.8733 5.6255 15.8799 5.6206 15.8873Z" fill="#E5D1B8"/>
<path d="M5.59806 16H4.91695C4.81674 15.9961 4.71746 15.9793 4.62154 15.95L4.59499 15.9431C3.71029 15.7293 3.16501 14.9928 3.17309 14.0213C3.19472 11.4117 3.1912 8.75796 3.18777 6.19163C3.18646 5.21072 3.1856 4.23258 3.18518 3.25721L3.18504 2.80857C3.18517 2.46316 3.1853 2.11286 3.18104 1.76838C3.18898 1.56167 3.14565 1.3562 3.05489 1.17028C3.03972 1.14249 3.023 1.11557 3.0048 1.08966L2.99648 1.07413C2.98378 1.04167 2.97017 1.01033 2.95567 0.980105L2.94009 0.950234C2.92844 0.927331 2.91912 0.908956 2.9091 0.891483L2.88866 0.858432C2.87563 0.837186 2.86689 0.822924 2.85764 0.809224L2.83014 0.771216C2.82077 0.758285 2.81144 0.745354 2.80163 0.732986L2.78252 0.709906C2.76266 0.686456 2.7522 0.674058 2.74135 0.662192L2.71786 0.637633C2.70088 0.620205 2.68915 0.608176 2.67704 0.596636L2.64704 0.569162C2.63384 0.557326 2.62151 0.546349 2.60889 0.535785L2.5761 0.509258C2.56325 0.499094 2.55032 0.489048 2.5372 0.479313L2.26488 0.31259L1.91795 0.16328L1.58032 0.0382484L1.96729 0.0171954C2.14647 0.00809651 2.33125 0.00873268 2.5129 0.00873268C3.40318 0.00873268 4.29322 0.00931462 5.18303 0.0104785H5.23218C7.61335 0.0127125 10.0755 0.0150057 12.4965 0.00012207C12.7388 0.00038495 12.9786 0.0491911 13.2016 0.143653C13.4247 0.238116 13.6265 0.376315 13.7952 0.550077C14.1489 0.902312 14.3488 1.38012 14.351 1.87909C14.3288 4.51895 14.3342 7.20345 14.3394 9.79955C14.3414 10.7842 14.3433 11.7638 14.3439 12.7434V12.8162L14.1413 12.8198C14.0356 12.8219 13.931 12.824 13.8281 12.8241L5.73934 12.8257L5.69822 12.8242C5.66555 12.8239 5.63292 12.8218 5.60049 12.8179C5.37252 12.7768 5.13765 12.798 4.92077 12.8793C4.70388 12.9607 4.51305 13.0991 4.36848 13.2799L4.35092 13.3032C4.32013 13.3452 4.29186 13.3889 4.26628 13.4343C4.23997 13.4797 4.21627 13.5266 4.1953 13.5747C4.07182 13.8457 4.043 14.1503 4.11344 14.4396C4.18389 14.7289 4.34953 14.9862 4.58381 15.1702L4.61677 15.2008L5.25403 15.3825L4.84099 15.3746C4.94836 15.4281 5.06471 15.4613 5.18417 15.4724C5.23835 15.4784 5.29286 15.4828 5.34753 15.4864L5.42898 15.4902C5.45697 15.4917 5.48495 15.4932 5.51296 15.494C5.62839 15.4975 5.73695 15.4983 5.8437 15.4989L5.85939 15.4991C5.94662 15.4997 6.01959 15.5005 6.09251 15.5019L6.2571 15.5052L6.14508 15.6265C6.12964 15.643 6.11288 15.6581 6.09495 15.6719C6.07566 15.6867 6.05543 15.7002 6.03437 15.7124C6.00649 15.728 5.98895 15.737 5.97089 15.7455L5.82886 15.8105L5.7805 15.7525L5.81493 15.818L5.79286 15.8298L5.74014 15.7756L5.77912 15.8385L5.75996 15.8506L5.70241 15.8015L5.74721 15.8604L5.73049 15.8734L5.66749 15.8315L5.71898 15.8847L5.7046 15.899L5.63607 15.8665L5.69436 15.9121L5.6463 15.9879L5.59806 16ZM3.13116 1.01202C3.15055 1.04017 3.16845 1.0693 3.18481 1.09931C3.28773 1.30626 3.33733 1.53561 3.32912 1.76656C3.33337 2.11168 3.33325 2.46262 3.33312 2.8022L3.33328 3.25714C3.33328 4.23398 3.33414 5.21071 3.33586 6.18732C3.33928 8.75818 3.3428 11.4122 3.32115 14.0226C3.31375 14.9217 3.81557 15.6027 4.63093 15.7998L4.65858 15.8069C4.74249 15.8326 4.82928 15.8479 4.91695 15.8522H5.55519L5.55876 15.8466C5.56397 15.8387 5.5696 15.8315 5.57528 15.8243C5.58532 15.8112 5.58959 15.8057 5.5941 15.8007C5.60012 15.7939 5.60648 15.7877 5.6129 15.7816L5.63348 15.7619C5.64016 15.7561 5.64713 15.7507 5.65421 15.7454L5.78383 15.6683C5.80095 15.6602 5.81583 15.6535 5.83003 15.647C5.71838 15.6463 5.61679 15.6454 5.51516 15.6422C5.47934 15.6412 5.45035 15.6397 5.42135 15.6382L5.33816 15.6342C5.28125 15.6306 5.2245 15.6258 5.16811 15.6197C4.93888 15.603 4.7226 15.5072 4.55639 15.3486L4.48497 15.2805C4.43444 15.2387 4.3864 15.194 4.34109 15.1466L4.30767 15.1155L4.31359 15.1172C4.11803 14.9051 3.98954 14.6401 3.94427 14.3553C3.899 14.0706 3.93896 13.7788 4.05914 13.5167C4.08234 13.4634 4.10854 13.4116 4.13762 13.3613C4.16609 13.3109 4.19757 13.2622 4.23189 13.2155L4.25151 13.1895C4.41179 12.9878 4.62371 12.8332 4.8648 12.742C5.10589 12.6508 5.36718 12.6265 5.62097 12.6717C5.64699 12.6747 5.67316 12.6764 5.69936 12.6765L5.74318 12.678L13.828 12.6761C13.9299 12.6761 14.0335 12.674 14.1338 12.672L14.1957 12.6708C14.1951 11.7155 14.1936 10.7602 14.1912 9.80489C14.186 7.20337 14.1807 4.51849 14.2028 1.8778C14.2004 1.41821 14.016 0.978273 13.6899 0.6541C13.5364 0.495345 13.3528 0.368802 13.1497 0.281895C12.9467 0.194987 12.7283 0.149464 12.5074 0.147997C10.0759 0.162954 7.61341 0.160661 5.23204 0.158427H5.18328C4.21644 0.157441 3.24978 0.156864 2.2833 0.156696L2.54393 0.303535C2.55868 0.313251 2.57328 0.323203 2.58773 0.333391L2.62539 0.360496C2.63978 0.371163 2.65394 0.38214 2.66799 0.393266L2.704 0.422412C2.71791 0.434056 2.73152 0.446084 2.74507 0.45829L2.77923 0.489581C2.79266 0.502378 2.80569 0.515708 2.81869 0.529068L2.85061 0.562357C2.86279 0.575672 2.87452 0.589535 2.88625 0.603412L2.91779 0.641139C2.92887 0.65515 2.9395 0.669782 2.9501 0.684429L2.90168 0.743609L2.96128 0.699727L2.98024 0.72618C2.99075 0.7417 3.00072 0.757915 3.01067 0.774145L2.95945 0.831949L3.02204 0.792446L3.03756 0.817835C3.0488 0.837438 3.0593 0.857988 3.06977 0.878493L3.01276 0.92924L3.07803 0.894309L3.08931 0.916235C3.10408 0.947166 3.11803 0.979094 3.13116 1.01202Z" fill="#2B2129"/>
<path d="M5.97672 14.4574C5.98432 14.4038 5.9888 14.3498 5.99013 14.2957C6.0009 14.2145 5.99345 14.1319 5.96832 14.0539C5.94318 13.9759 5.90099 13.9045 5.8448 13.8448C5.8333 13.8285 5.82173 13.8119 5.81036 13.7953C5.80721 13.7907 5.80426 13.786 5.80115 13.7813C5.7929 13.769 5.78474 13.7566 5.77697 13.744C5.7731 13.7378 5.76956 13.7314 5.76594 13.7251C5.75938 13.7139 5.75296 13.7026 5.74705 13.6912C5.74338 13.684 5.74017 13.6767 5.73679 13.6695C5.73342 13.6623 5.73048 13.655 5.72751 13.6477L5.73248 13.6477L6.56361 13.634C6.57318 13.6498 6.58121 13.666 6.59006 13.6821C6.6022 13.704 6.61503 13.7257 6.62584 13.748C6.63487 13.7667 6.64213 13.7857 6.6502 13.8046C6.65935 13.8259 6.6693 13.8469 6.6773 13.8685C6.68514 13.8897 6.69108 13.9112 6.69782 13.9327C6.704 13.9523 6.71115 13.9717 6.71633 13.9915C6.72299 14.0167 6.7276 14.0421 6.73275 14.0675C6.73608 14.0839 6.74044 14.1 6.74312 14.1165C6.74839 14.1486 6.75151 14.1808 6.75445 14.2131C6.75537 14.223 6.75716 14.2328 6.75784 14.2428C6.76803 14.443 6.73845 14.6433 6.67082 14.832C6.60319 15.0208 6.49883 15.1943 6.36376 15.3426C6.35172 15.3563 6.33829 15.3694 6.32573 15.3829C6.3062 15.4039 6.2871 15.4251 6.26629 15.4454C6.23214 15.4788 6.19633 15.5111 6.15884 15.5426C6.06611 15.5404 5.97319 15.5398 5.88026 15.5392C5.77261 15.5386 5.66315 15.5378 5.55357 15.5345L5.54525 15.5344C5.51846 15.5335 5.49173 15.5319 5.46494 15.5307C5.37942 15.5268 5.29401 15.5216 5.20962 15.5125C5.18357 15.5097 5.15816 15.5061 5.13327 15.5018C5.12511 15.5004 5.11732 15.4986 5.10928 15.497C5.09278 15.4939 5.0763 15.4907 5.06034 15.4869C5.05113 15.4847 5.04228 15.4821 5.03325 15.4797C5.01898 15.4759 5.0047 15.4721 4.99087 15.4678C4.98159 15.4648 4.97263 15.4616 4.96353 15.4584C4.95053 15.454 4.93759 15.4494 4.92503 15.4444C4.91597 15.4408 4.90717 15.437 4.89838 15.4331C4.88632 15.4279 4.87437 15.4225 4.86273 15.4168C4.85412 15.4126 4.84569 15.4082 4.83729 15.4037C4.82601 15.3977 4.81487 15.3915 4.80399 15.385C4.79589 15.3802 4.78792 15.3753 4.78006 15.3702C4.76946 15.3634 4.75909 15.3563 4.74896 15.349C4.74144 15.3436 4.73398 15.3382 4.72675 15.3326C4.71988 15.3273 4.7133 15.3216 4.70664 15.3161L4.68677 15.2977C4.72413 15.2972 4.76149 15.2971 4.79882 15.2971C5.00157 15.3099 5.20485 15.2825 5.39693 15.2164C5.4494 15.1948 5.50003 15.1691 5.54831 15.1393C5.66707 15.0658 5.76742 14.9662 5.84168 14.848C5.91593 14.7298 5.96213 14.5961 5.97672 14.4574Z" fill="#BB9168"/>
<path d="M6.18507 15.6171L6.15722 15.6164C6.0668 15.6143 5.97618 15.6138 5.88557 15.6132C5.77168 15.6125 5.66163 15.6117 5.55144 15.6084L5.46175 15.6045C5.37464 15.6006 5.28767 15.5953 5.20176 15.586C5.17418 15.583 5.14729 15.5792 5.12095 15.5747L5.1037 15.5713C5.07786 15.5663 5.06029 15.5629 5.04328 15.5588L5.0228 15.5534C4.99863 15.547 4.98351 15.5429 4.96885 15.5383L4.94631 15.5307C4.92539 15.5234 4.91141 15.5185 4.89783 15.5132L4.87266 15.5025C4.85579 15.4952 4.84282 15.4894 4.83017 15.4832L4.80248 15.4689C4.79015 15.4624 4.778 15.4556 4.76611 15.4485L4.73993 15.4323C4.72833 15.4248 4.71698 15.417 4.70587 15.409L4.63641 15.3519L4.50073 15.2263L4.68563 15.2236C4.72333 15.2231 4.76105 15.223 4.79872 15.223C4.99185 15.2354 5.18554 15.2098 5.36884 15.1478C5.41759 15.1278 5.46464 15.1038 5.50952 15.0762C5.61913 15.0085 5.71168 14.9166 5.78001 14.8075C5.84834 14.6983 5.89061 14.5749 5.90355 14.4469C5.91075 14.3961 5.91499 14.3449 5.91626 14.2936C5.92606 14.2204 5.91931 14.1458 5.8965 14.0755C5.87369 14.0052 5.83541 13.9409 5.78446 13.8873L5.73974 13.8224C5.73099 13.8093 5.72236 13.7962 5.71412 13.7829L5.70565 13.7684C5.69493 13.75 5.68788 13.7376 5.68138 13.725L5.61864 13.5771L5.72643 13.5738L6.60508 13.5593L6.6271 13.5957C6.63404 13.6072 6.64029 13.6188 6.64651 13.6305L6.66412 13.6625C6.67402 13.6801 6.6839 13.6978 6.69261 13.7158C6.69932 13.7296 6.70515 13.7436 6.71096 13.7577L6.72613 13.7932C6.73341 13.8096 6.74065 13.8261 6.74687 13.8428C6.75294 13.8592 6.758 13.8758 6.76304 13.8924L6.77459 13.9289C6.7794 13.9434 6.78417 13.958 6.78806 13.9727C6.7937 13.994 6.79801 14.0154 6.80228 14.0369L6.80922 14.0699C6.81186 14.0814 6.81444 14.0929 6.81636 14.1046C6.82193 14.1384 6.82525 14.1724 6.82837 14.2065L6.83188 14.2377C6.84291 14.4477 6.81216 14.6578 6.74141 14.8558C6.67066 15.0538 6.56132 15.2358 6.41971 15.3913C6.41141 15.4008 6.40266 15.4099 6.39387 15.4189L6.36869 15.4456C6.35227 15.4633 6.33582 15.4811 6.31826 15.4983C6.28266 15.533 6.2454 15.5667 6.20648 15.5993L6.18507 15.6171ZM4.93884 15.3698L4.9524 15.3756C4.96396 15.3802 4.9759 15.3843 4.98787 15.3885L5.01304 15.3971C5.0257 15.4011 5.03878 15.4045 5.05185 15.408L5.07754 15.4149C5.09246 15.4185 5.10787 15.4214 5.12327 15.4244L5.13331 15.5018L5.14575 15.4289C5.16919 15.4328 5.19314 15.4362 5.21765 15.4389C5.3005 15.4479 5.38436 15.453 5.46832 15.4566L5.54762 15.4603C5.66484 15.4638 5.7737 15.4645 5.8808 15.4651C5.96794 15.4657 6.05049 15.4662 6.13244 15.4678C6.1609 15.4433 6.18831 15.4181 6.21467 15.3924C6.23034 15.3771 6.24507 15.3611 6.25982 15.3451L6.28738 15.3158C6.29446 15.3085 6.30155 15.3012 6.30811 15.2936C6.43684 15.1528 6.53634 14.9878 6.60086 14.8082C6.66538 14.6287 6.69365 14.4382 6.68402 14.2476L6.68076 14.2196C6.67799 14.1891 6.67509 14.1586 6.6701 14.1283C6.66862 14.1197 6.66668 14.1111 6.66472 14.1025L6.65689 14.0655C6.65323 14.047 6.64962 14.0285 6.64478 14.0103C6.64165 13.9984 6.63774 13.9868 6.63388 13.9752L6.62116 13.935C6.61701 13.9213 6.6129 13.9075 6.60783 13.894C6.60268 13.8801 6.59658 13.8664 6.59052 13.8527L6.57389 13.8139C6.56921 13.8026 6.56458 13.7912 6.55917 13.7801C6.55177 13.7648 6.54331 13.7499 6.53487 13.7349L6.5203 13.7085L5.84932 13.7197C5.85376 13.7265 5.85821 13.7333 5.86281 13.7401L5.81048 13.7952L5.87164 13.7536L5.90546 13.8021C5.96794 13.8699 6.01448 13.9507 6.04169 14.0387C6.0689 14.1267 6.07608 14.2197 6.06271 14.3109C6.06206 14.3634 6.05785 14.4158 6.05012 14.4678C6.03363 14.6173 5.98338 14.761 5.90317 14.8883C5.82296 15.0155 5.71487 15.1228 5.58707 15.2023C5.53536 15.2341 5.48115 15.2617 5.42498 15.2847C5.26968 15.3432 5.10478 15.3721 4.93884 15.3698ZM5.79906 13.7205L5.77704 13.744L5.81544 13.7203L5.79906 13.7205Z" fill="#2B2129"/>
<path d="M5.95909 14.2779L5.7219 14.2771C5.48784 14.2763 5.2538 14.2752 5.01978 14.2738L4.99893 14.2737C4.88557 14.2734 4.77849 14.2731 4.74054 14.1409C4.7251 14.0853 4.7255 14.0265 4.74171 13.9711C4.75791 13.9157 4.78927 13.866 4.83226 13.8274C4.8496 13.809 4.86727 13.7923 4.88511 13.7765C4.89071 13.7715 4.89638 13.767 4.90202 13.7623C4.91479 13.7516 4.92768 13.7416 4.9407 13.7322C4.94689 13.7277 4.95305 13.7232 4.9593 13.719C4.97394 13.7092 4.98877 13.7002 5.00372 13.6918C5.00787 13.6894 5.01193 13.6867 5.0161 13.6845C5.03463 13.6747 5.05348 13.6661 5.07255 13.6582C5.07951 13.6554 5.08662 13.653 5.09367 13.6504C5.10651 13.6456 5.11944 13.6412 5.13253 13.6373C5.14076 13.6349 5.14905 13.6325 5.1574 13.6304C5.17033 13.6271 5.18342 13.6243 5.1966 13.6217C5.20442 13.6202 5.21214 13.6184 5.22003 13.6171C5.23966 13.6139 5.25957 13.6114 5.27975 13.6097C5.28828 13.609 5.297 13.6087 5.30562 13.6082C5.31895 13.6075 5.33245 13.6069 5.34608 13.6067C5.35548 13.6066 5.36499 13.6067 5.37451 13.6068C5.38994 13.607 5.40554 13.6076 5.4213 13.6085C5.42896 13.6089 5.43654 13.6092 5.44427 13.6097C5.46816 13.6115 5.49234 13.6138 5.51696 13.6168L5.52506 13.6179C5.55001 13.6211 5.57532 13.6249 5.601 13.6292L5.60506 13.6299C5.63293 13.6347 5.66124 13.64 5.68998 13.6459C5.69394 13.6565 5.69908 13.6666 5.70371 13.6769C5.70727 13.6847 5.71033 13.6928 5.71422 13.7005C5.72039 13.7128 5.72732 13.7246 5.73417 13.7365C5.73808 13.7433 5.74158 13.7502 5.74571 13.757C5.75373 13.7701 5.76225 13.7829 5.77076 13.7957C5.77421 13.8009 5.77746 13.8062 5.78097 13.8113C5.79302 13.8291 5.80531 13.8465 5.81751 13.8639C5.82875 13.8798 5.8399 13.8957 5.85077 13.9115C5.85314 13.915 5.85521 13.9185 5.85763 13.9219C5.86613 13.9344 5.87458 13.947 5.88254 13.9597C5.88465 13.9631 5.88647 13.9665 5.88856 13.9699C5.89643 13.9828 5.90419 13.9957 5.9112 14.0089C5.91269 14.0117 5.91393 14.0147 5.91541 14.0176C5.92253 14.0314 5.92936 14.0453 5.93524 14.0596C5.93632 14.0622 5.93706 14.065 5.9381 14.0676C5.94392 14.0822 5.94894 14.0971 5.95313 14.1122C5.95397 14.1154 5.95437 14.1186 5.95514 14.1218C5.95889 14.1367 5.96171 14.1519 5.96358 14.1673C5.96411 14.172 5.96403 14.1771 5.96438 14.1819C5.96557 14.1961 5.96594 14.2104 5.96548 14.2246C5.96509 14.2333 5.96369 14.2424 5.96266 14.2513C5.96179 14.2601 5.96066 14.2689 5.95909 14.2779Z" fill="#2B2129"/>
<path d="M6.02142 14.3521L5.72175 14.3511C5.4876 14.3503 5.25346 14.3492 5.01935 14.3478L4.99869 14.3477C4.88229 14.3474 4.72275 14.3469 4.66947 14.1613C4.65044 14.0934 4.65054 14.0216 4.66976 13.9538C4.68898 13.8859 4.72657 13.8247 4.77838 13.7768C4.79732 13.7567 4.81659 13.7385 4.83614 13.7212L4.85052 13.709C4.86885 13.6938 4.88309 13.6826 4.8975 13.6722L4.91823 13.6576C4.93452 13.6467 4.95105 13.6366 4.96777 13.6273L4.98163 13.6192C5.00215 13.6084 5.0232 13.5986 5.04471 13.5898L5.06248 13.5832C5.08267 13.5758 5.09709 13.5708 5.11167 13.5665L5.13935 13.5588C5.15361 13.5551 5.16811 13.552 5.1827 13.5491L5.20851 13.5441C5.22998 13.5406 5.25174 13.538 5.2738 13.5361L5.29396 13.5349C5.31627 13.5337 5.33076 13.533 5.34547 13.5328L5.37587 13.5329C5.39235 13.5331 5.40897 13.5337 5.42573 13.5347L5.44994 13.536C5.47511 13.5379 5.50053 13.5403 5.52638 13.5434C5.56075 13.5478 5.58699 13.5517 5.61375 13.5563C5.64659 13.5618 5.67568 13.5674 5.70526 13.5734L5.74536 13.5817L5.77608 13.6568C5.78567 13.6771 5.79118 13.6866 5.79666 13.6961L5.80406 13.7093C5.81673 13.7307 5.82468 13.7426 5.83263 13.7546L5.7813 13.8114L5.84254 13.7698L5.91214 13.8697C5.92825 13.8938 5.93715 13.9071 5.94554 13.9205C5.96066 13.9456 5.96913 13.9597 5.97682 13.9741C5.98963 13.9995 5.99734 14.0153 6.00401 14.0315C6.01205 14.0517 6.01903 14.0723 6.02493 14.0931C6.03038 14.1148 6.03455 14.1367 6.03741 14.1589L6.03849 14.1766C6.0399 14.1936 6.04031 14.2107 6.03972 14.2278C6.03935 14.2363 6.03836 14.2449 6.0373 14.2534C6.03543 14.2697 6.03414 14.2801 6.03229 14.2906L6.02142 14.3521ZM5.9594 14.2245V14.2262L5.96562 14.2248L5.9594 14.2245ZM4.88521 13.7765L4.93435 13.8318C4.91815 13.8462 4.90208 13.8613 4.88634 13.8781C4.85237 13.9074 4.82736 13.9457 4.81418 13.9886C4.801 14.0314 4.80018 14.0772 4.81181 14.1205C4.83177 14.19 4.86756 14.1994 4.99921 14.1998L5.02023 14.1998C5.25435 14.2016 5.48835 14.2026 5.72223 14.2031L5.89163 14.2037C5.89143 14.1983 5.89109 14.1929 5.89069 14.1876C5.88965 14.1713 5.88717 14.1551 5.88329 14.1393C5.87972 14.1241 5.87501 14.1091 5.86922 14.0946C5.86354 14.0799 5.85702 14.0655 5.84967 14.0515C5.83962 14.0319 5.83257 14.0202 5.82545 14.0086L5.70904 13.8365C5.70005 13.823 5.69109 13.8095 5.68262 13.7956L5.67396 13.7804C5.66121 13.7581 5.65435 13.7461 5.64818 13.7339L5.63944 13.7146L5.64276 13.7121C5.62589 13.7088 5.60919 13.7058 5.59268 13.7029C5.56402 13.6981 5.53972 13.6945 5.51567 13.6914C5.48458 13.6875 5.46156 13.6853 5.43888 13.6836L5.41733 13.6825C5.40252 13.6817 5.3879 13.6812 5.37347 13.681L5.34714 13.6809C5.33452 13.6811 5.32213 13.6817 5.30979 13.6824L5.2861 13.6837C5.2678 13.6853 5.24975 13.6875 5.23195 13.6904L5.21088 13.6946C5.19913 13.6969 5.18743 13.6993 5.17588 13.7023L5.15367 13.7085C5.14215 13.7119 5.1307 13.7159 5.11933 13.7201L5.07258 13.6585L5.10072 13.7269C5.08391 13.7338 5.06728 13.7414 5.05095 13.7501C5.02673 13.764 5.0136 13.772 5.0006 13.7807L4.98617 13.7908C4.97239 13.8008 4.96087 13.8098 4.94945 13.8193L4.88521 13.7765ZM5.68416 13.6749L5.68298 13.6806L5.69962 13.6677L5.68416 13.6749Z" fill="#2B2129"/>
<path d="M5.70408 13.6149C5.39197 13.5499 5.06767 13.5284 4.80805 13.8047C4.76088 13.8472 4.72657 13.9021 4.70899 13.9632C4.69141 14.0242 4.69127 14.0889 4.70858 14.1501C4.75343 14.3063 4.88384 14.3067 4.99882 14.307L5.01955 14.3071C5.24731 14.3088 5.47506 14.3098 5.70281 14.3103L5.95603 14.3112C5.95563 14.3219 5.95496 14.3323 5.95433 14.3428C5.95354 14.3558 5.95285 14.369 5.95178 14.3818C5.95061 14.3949 5.94895 14.4077 5.94741 14.4206C5.94593 14.4331 5.94461 14.4458 5.94278 14.4579C5.94089 14.4706 5.9385 14.4829 5.93623 14.4953C5.93405 14.5072 5.93205 14.5193 5.92954 14.5311C5.92692 14.5433 5.92378 14.5551 5.92079 14.567C5.91793 14.5784 5.91526 14.59 5.91206 14.6011C5.90872 14.6129 5.90482 14.6242 5.90111 14.6356C5.89758 14.6465 5.89426 14.6575 5.8904 14.6681C5.88633 14.6793 5.88171 14.6901 5.87726 14.701C5.87307 14.7114 5.86909 14.7218 5.86457 14.7319C5.85979 14.7426 5.85446 14.7528 5.84932 14.7631C5.84445 14.7729 5.8398 14.783 5.8346 14.7925C5.82911 14.8026 5.82307 14.8123 5.81723 14.8221C5.81169 14.8314 5.80639 14.8409 5.80054 14.8499C5.79432 14.8595 5.78753 14.8686 5.78095 14.8779C5.77479 14.8866 5.76888 14.8955 5.76241 14.904C5.75544 14.913 5.74787 14.9217 5.74054 14.9304C5.73379 14.9385 5.7273 14.9468 5.72025 14.9546C5.71248 14.9632 5.70411 14.9713 5.69598 14.9796C5.68868 14.987 5.68168 14.9947 5.67408 15.0019C5.66552 15.01 5.65631 15.0175 5.64742 15.0253C5.63959 15.0321 5.63205 15.0392 5.62392 15.0457C5.61443 15.0534 5.6043 15.0605 5.59443 15.0678C5.58622 15.0739 5.57833 15.0802 5.56986 15.0861C5.55895 15.0936 5.54738 15.1005 5.53602 15.1076C5.52794 15.1126 5.52018 15.1179 5.51187 15.1228C5.49927 15.1302 5.48597 15.1369 5.47285 15.1438C5.46515 15.1478 5.4578 15.1522 5.44993 15.1561C5.42866 15.1665 5.40677 15.1764 5.38424 15.1856C5.19611 15.2499 4.99714 15.2765 4.79872 15.2639C4.74964 15.2639 4.70052 15.264 4.65144 15.2652L4.63261 15.2477L4.65158 15.2653L4.58335 15.2021L4.58261 15.2014C4.33935 15.013 4.16702 14.7479 4.09359 14.4492C4.02017 14.1506 4.04997 13.8359 4.17815 13.5562C4.19279 13.5224 4.20871 13.4897 4.22553 13.4576C4.23097 13.4473 4.237 13.4375 4.24265 13.4273C4.2545 13.4061 4.26645 13.3851 4.2792 13.3648C4.28641 13.3533 4.2941 13.3423 4.3016 13.3311C4.31378 13.313 4.32614 13.295 4.33907 13.2777C4.34739 13.2665 4.35598 13.2557 4.3646 13.2448C4.37778 13.2283 4.39129 13.2121 4.40513 13.1963C4.41413 13.186 4.42326 13.1759 4.43252 13.166C4.44715 13.1504 4.46223 13.1353 4.47753 13.1206C4.48681 13.1117 4.49602 13.1025 4.50554 13.0939C4.52247 13.0786 4.53996 13.064 4.55764 13.0496C4.56624 13.0426 4.57461 13.0353 4.58339 13.0286C4.60597 13.0112 4.6293 12.9948 4.65299 12.9791C4.65743 12.9761 4.66158 12.9728 4.66604 12.97C4.69491 12.9512 4.72456 12.9337 4.75497 12.9174C4.76017 12.9146 4.76562 12.9123 4.77086 12.9096C4.79579 12.8966 4.82106 12.8843 4.84693 12.8729C4.85677 12.8686 4.8669 12.8649 4.87686 12.8608C4.89872 12.8519 4.92072 12.8432 4.94319 12.8354C4.95475 12.8314 4.96653 12.8278 4.97824 12.8241C4.99975 12.8173 5.02146 12.8109 5.04348 12.8052C5.05595 12.8019 5.06851 12.7989 5.08113 12.7959C5.10319 12.7908 5.12549 12.7863 5.14802 12.7822C5.16077 12.7799 5.17353 12.7776 5.18643 12.7756C5.20986 12.7721 5.23359 12.7693 5.25751 12.7669C5.26981 12.7656 5.28202 12.7641 5.29444 12.7631C5.32109 12.7611 5.34809 12.7601 5.37522 12.7594C5.38514 12.7592 5.39491 12.7585 5.40491 12.7584C5.43239 12.7583 5.46029 12.7596 5.48822 12.7609C5.49942 12.7614 5.51043 12.7613 5.52166 12.7621C5.56084 12.7647 5.60039 12.7687 5.64033 12.7742C5.6708 12.7779 5.70145 12.7799 5.73214 12.7801C5.74131 12.7804 5.75077 12.7807 5.76018 12.7811C5.76102 12.7864 5.76278 12.7907 5.76395 12.7957C5.76536 12.8016 5.76663 12.8077 5.76848 12.8132C5.77077 12.8198 5.77342 12.8261 5.77643 12.8324C5.77874 12.8373 5.78088 12.8424 5.78353 12.847C5.78693 12.8527 5.79064 12.8581 5.79465 12.8633C5.79761 12.8674 5.80044 12.8717 5.80371 12.8755C5.80805 12.8805 5.81285 12.885 5.81762 12.8895C5.82108 12.8929 5.82437 12.8964 5.82798 12.8995C5.83319 12.9039 5.83876 12.9078 5.84427 12.9118C5.84799 12.9144 5.85153 12.9173 5.85536 12.9198C5.86142 12.9238 5.86773 12.9273 5.87402 12.9309C5.87768 12.933 5.88119 12.9353 5.8849 12.9373C5.89195 12.9411 5.89911 12.9446 5.90627 12.9481C5.90938 12.9496 5.91243 12.9512 5.91554 12.9527C5.92572 12.9575 5.93589 12.9622 5.9459 12.9667L5.96591 12.9759C6.00079 12.992 6.03432 13.0094 6.06647 13.0281C6.07683 13.034 6.08615 13.0409 6.0962 13.0472C6.11754 13.0605 6.13906 13.0735 6.15918 13.088C6.16973 13.0955 6.17931 13.104 6.18953 13.1119C6.20802 13.1262 6.22672 13.1403 6.24415 13.1557C6.25378 13.1642 6.2625 13.1737 6.2718 13.1825C6.28864 13.1985 6.30564 13.2143 6.32141 13.2315C6.33003 13.2408 6.33782 13.2511 6.34612 13.2608C6.36138 13.2785 6.37673 13.2963 6.39093 13.3152C6.39902 13.326 6.40629 13.3377 6.41403 13.3488C6.42718 13.3678 6.44042 13.3866 6.45254 13.4066C6.46084 13.4203 6.46834 13.4349 6.47623 13.4491C6.48648 13.4675 6.49687 13.4858 6.50638 13.5052C6.51589 13.5245 6.52428 13.5445 6.53293 13.5645C6.53819 13.5766 6.54356 13.5886 6.54857 13.601L5.70408 13.6149Z" fill="#CBA58C"/>
<path d="M4.62316 15.3397L4.60123 15.3194L4.53311 15.2562C4.27788 15.0578 4.09724 14.779 4.02049 14.4651C3.94373 14.1512 3.97537 13.8206 4.11026 13.5269C4.12566 13.4912 4.14239 13.4568 4.16005 13.4232L4.17201 13.4018C4.19051 13.3689 4.20311 13.3467 4.21657 13.3254L4.23434 13.2984C4.25298 13.2707 4.26604 13.2517 4.2797 13.2334L4.30665 13.1987C4.3206 13.1812 4.33488 13.1641 4.3495 13.1474L4.3785 13.1154C4.39397 13.0988 4.40991 13.0829 4.42611 13.0673L4.45572 13.0391C4.47364 13.0228 4.49217 13.0074 4.51088 12.9922L4.53817 12.97C4.56209 12.9516 4.58673 12.9342 4.61182 12.9175L4.62565 12.9079C4.65625 12.8881 4.68764 12.8695 4.71981 12.8523L4.73661 12.8439C4.76296 12.8302 4.78971 12.8172 4.81709 12.8052L4.83863 12.7963C4.87181 12.7828 4.89507 12.7737 4.91879 12.7655L4.94899 12.7557C4.9785 12.7463 5.00139 12.7396 5.02461 12.7335L5.06428 12.7237C5.08753 12.7184 5.11101 12.7136 5.13473 12.7093L5.17515 12.7024C5.19976 12.6986 5.22472 12.6957 5.24979 12.6932L5.28855 12.6892C5.3165 12.6871 5.34483 12.686 5.37326 12.6853L5.40436 12.6843C5.4331 12.6842 5.46229 12.6855 5.4915 12.6869L5.52646 12.6881C5.56734 12.6909 5.60863 12.6951 5.65031 12.7008C5.67783 12.7041 5.70552 12.7058 5.73323 12.706L5.81829 12.7091L5.85373 12.8189L5.88588 12.8505L5.99669 12.9085C6.03391 12.9257 6.06939 12.9442 6.10351 12.964C6.11092 12.9682 6.11789 12.9729 6.12487 12.9775L6.10279 13.0512L6.14181 12.9883C6.16238 13.0011 6.18291 13.0139 6.2023 13.0278C6.20991 13.0332 6.21711 13.0391 6.22433 13.045L6.18943 13.1118L6.24253 13.0593C6.25976 13.0727 6.27693 13.086 6.29312 13.1002C6.30012 13.1064 6.30676 13.113 6.31336 13.1196L6.27172 13.1824L6.32878 13.1345C6.34481 13.1497 6.36079 13.165 6.37581 13.1813C6.38209 13.1881 6.38804 13.1953 6.39396 13.2025L6.3498 13.265L6.40608 13.2169C6.42114 13.2345 6.43615 13.2521 6.45016 13.2708C6.45608 13.2787 6.46167 13.287 6.4672 13.2953L6.414 13.3487L6.47813 13.3113C6.49103 13.3299 6.50388 13.3485 6.51585 13.3681C6.52222 13.3786 6.52817 13.3896 6.53409 13.4005L6.47621 13.449L6.54524 13.4209C6.55468 13.4378 6.56408 13.4547 6.57282 13.4725C6.58155 13.4903 6.58961 13.509 6.59762 13.5276L6.54795 13.5653V13.5688L6.60467 13.544L6.6573 13.6732L5.69703 13.689L5.68896 13.6873C5.35306 13.6174 5.08387 13.6192 4.862 13.8553C4.8238 13.8886 4.79581 13.9321 4.78125 13.9806C4.76669 14.0291 4.76616 14.0808 4.77971 14.1296C4.80646 14.2228 4.86708 14.2327 4.99907 14.233L5.01989 14.2331C5.24773 14.2348 5.47544 14.2359 5.70304 14.2363L6.03291 14.2375L6.02189 14.4213L5.94637 14.4297L6.01992 14.4381L6.01061 14.5003L5.93461 14.5043L6.00751 14.5173L5.99466 14.5769L5.91857 14.576L5.99048 14.5936L5.97419 14.6503L5.89821 14.6446L5.96877 14.6671L5.94914 14.7209L5.87378 14.7097L5.94256 14.7371L5.91953 14.7882L5.84517 14.7716L5.9118 14.8039L5.88545 14.8523L5.81226 14.8303L5.87619 14.8676L5.84647 14.9133L5.77524 14.8859L5.83609 14.9281L5.80314 14.9708L5.73414 14.9381L5.79147 14.9848L5.75528 15.0248L5.68887 14.9868L5.74235 15.038L5.7032 15.0748L5.63953 15.0322L5.68881 15.0874L5.67045 15.1032C5.66263 15.1095 5.65444 15.1155 5.64625 15.1215L5.58587 15.0741L5.63077 15.1329L5.61182 15.1469C5.60261 15.1532 5.593 15.1592 5.58337 15.1651L5.5271 15.1132L5.56744 15.1752L5.54928 15.1866C5.53816 15.1931 5.52658 15.1991 5.51499 15.2051L5.46377 15.1486L5.49954 15.2134L5.48263 15.2223C5.45993 15.2335 5.4365 15.244 5.41237 15.2539C5.16694 15.3297 4.90943 15.3585 4.65331 15.3389L4.62316 15.3397ZM4.65278 12.9789L4.69384 13.0405C4.67154 13.0553 4.64965 13.0708 4.6284 13.0871L4.61423 13.0986C4.58758 13.1204 4.57108 13.1341 4.55515 13.1486L4.53425 13.1684C4.51439 13.1876 4.50019 13.2017 4.48642 13.2164L4.46061 13.245C4.44754 13.2599 4.4348 13.2751 4.42239 13.2908L4.39831 13.3217C4.38609 13.3381 4.37444 13.3551 4.36293 13.3722L4.34174 13.404C4.32967 13.4233 4.31838 13.4432 4.30718 13.4632L4.29089 13.4919C4.27496 13.5222 4.25979 13.5533 4.24595 13.5854C4.12457 13.8504 4.0964 14.1485 4.16603 14.4315C4.23565 14.7144 4.39898 14.9656 4.62948 15.1441L4.67965 15.1904C4.90773 15.2082 5.13714 15.1833 5.35607 15.117C5.37702 15.1084 5.39739 15.0993 5.41715 15.0895L5.43837 15.0781C5.45589 15.069 5.46537 15.0641 5.47443 15.0588L5.72617 14.827L5.8408 14.5807L5.87689 14.3848L5.70249 14.3842C5.47467 14.3834 5.24682 14.3824 5.01896 14.381L4.99846 14.3809C4.87871 14.3806 4.69754 14.38 4.63735 14.1703C4.6165 14.0969 4.61636 14.0192 4.63695 13.9457C4.65753 13.8722 4.69804 13.8059 4.75401 13.7539C5.03723 13.4526 5.396 13.476 5.71098 13.5407L6.43532 13.5288C6.42903 13.5165 6.42238 13.5046 6.41575 13.4927L6.40372 13.4708C6.39897 13.4621 6.39426 13.4533 6.38916 13.4449C6.3788 13.4279 6.36756 13.4118 6.35636 13.3956L6.33152 13.3594C6.31946 13.3433 6.30648 13.3283 6.29352 13.3132L6.26686 13.2814C6.2541 13.2676 6.24043 13.2547 6.22688 13.2418L6.1951 13.211C6.18139 13.1989 6.16679 13.1877 6.15216 13.1765L6.11594 13.1479C6.09925 13.1359 6.08149 13.125 6.06378 13.1141L6.02928 13.0919C5.99901 13.0744 5.96749 13.0581 5.93471 13.0429L5.80096 12.9717C5.793 12.966 5.78639 12.9612 5.78014 12.9559L5.76864 12.9452C5.7591 12.936 5.75305 12.9301 5.74748 12.9237L5.73664 12.9096C5.73038 12.9013 5.72458 12.8927 5.71924 12.8839L5.71046 12.8663C5.70825 12.8615 5.70628 12.8572 5.70453 12.8531C5.67959 12.8524 5.6547 12.8505 5.62996 12.8473C5.5918 12.842 5.55396 12.8382 5.51648 12.8357L5.48457 12.8346C5.45792 12.8334 5.43134 12.8322 5.40511 12.8323L5.3768 12.8332C5.35102 12.8339 5.32531 12.8347 5.29997 12.8367L5.27697 12.839C5.24225 12.8426 5.21973 12.8452 5.1975 12.8486L5.16291 12.8545C5.13975 12.8587 5.11861 12.863 5.09775 12.8678L5.06214 12.8766C5.0414 12.882 5.02081 12.8881 5.00047 12.8945L4.96735 12.9052C4.94619 12.9126 4.92543 12.9207 4.90481 12.9291L4.87659 12.9405C4.8522 12.9512 4.8284 12.9629 4.80492 12.9751L4.75488 12.9173L4.78993 12.9824C4.7613 12.9977 4.7334 13.0142 4.70622 13.0318L4.65278 12.9789Z" fill="#2B2129"/>
<path d="M15.9745 14.6665C15.8615 15.4029 15.2324 15.7579 14.7235 15.926H5.67041C5.67207 15.9231 5.67358 15.9199 5.67531 15.917C5.67886 15.9112 5.68255 15.9056 5.68639 15.9001C5.69084 15.8938 5.69548 15.8877 5.70031 15.8818C5.70445 15.8768 5.70866 15.8718 5.71307 15.8671C5.71821 15.8616 5.72357 15.8564 5.72905 15.8513C5.73369 15.847 5.73831 15.8427 5.74316 15.8387C5.74897 15.8338 5.75501 15.8293 5.76111 15.8248C5.7661 15.8211 5.77102 15.8174 5.77619 15.814C5.78269 15.8096 5.78941 15.8055 5.79615 15.8015C5.8013 15.7984 5.80636 15.7952 5.81165 15.7922C5.81906 15.7881 5.82661 15.7842 5.83419 15.7803C5.83917 15.7777 5.84401 15.7751 5.849 15.7726C5.85797 15.7682 5.86714 15.764 5.87633 15.7598C5.88018 15.758 5.88393 15.7562 5.88781 15.7544C5.90089 15.7485 5.91409 15.7426 5.92741 15.7369C5.94405 15.7296 5.96071 15.7221 5.97737 15.7145C6.04235 15.6882 6.10155 15.6495 6.15165 15.6005C6.16055 15.5911 6.16889 15.5812 6.17665 15.5709C6.21559 15.5385 6.25279 15.5051 6.28823 15.4706L6.29101 15.4677C6.79064 14.9794 6.9328 14.2973 6.65399 13.7295C6.63432 13.6893 6.6125 13.6496 6.58855 13.6106C6.50484 13.3787 6.34994 13.1791 6.14596 13.0404C6.09317 13.0044 6.03759 12.9727 5.97974 12.9455L5.95954 12.9363C5.94968 12.9319 5.93989 12.9274 5.93027 12.9228L5.92384 12.9197C5.91643 12.9161 5.90921 12.9126 5.90216 12.9088C5.89896 12.9071 5.89595 12.9053 5.89283 12.9035C5.88701 12.9003 5.88121 12.897 5.8757 12.8935C5.87232 12.8913 5.86921 12.889 5.86598 12.8867C5.86108 12.8833 5.85621 12.8799 5.85166 12.8761C5.84844 12.8735 5.84552 12.8706 5.8425 12.8678C5.83841 12.864 5.83437 12.8601 5.83065 12.856C5.82782 12.8528 5.82532 12.8493 5.82274 12.8459C5.81938 12.8416 5.81626 12.837 5.8134 12.8323C5.81113 12.8285 5.80915 12.8244 5.80718 12.8204C5.80467 12.8152 5.80246 12.8099 5.80056 12.8044C5.79899 12.7999 5.7976 12.7952 5.79644 12.7903C5.79573 12.7875 5.7953 12.7844 5.79473 12.7814L6.73496 12.7812C9.13602 12.7809 11.5371 12.7804 13.9381 12.7798C14.0431 12.7798 14.1498 12.7776 14.2529 12.7755C14.3021 12.7745 14.3513 12.7736 14.4005 12.7728C15.2526 12.8094 15.8391 13.2773 15.9695 14.0246C16.0065 14.2368 16.0082 14.4537 15.9745 14.6665Z" fill="#D7AF94"/>
<path d="M14.7354 16H5.54395L5.60583 15.8898C5.61193 15.8787 5.6186 15.8679 5.62579 15.8575C5.63133 15.8496 5.63711 15.842 5.64313 15.8347C5.64828 15.8285 5.6535 15.8223 5.65899 15.8165C5.66534 15.8097 5.67193 15.8033 5.67867 15.797L5.6958 15.7817C5.70276 15.7759 5.70998 15.7705 5.71728 15.7651L5.84544 15.6925L5.94651 15.6472C6.00261 15.6247 6.05389 15.5917 6.09755 15.5499C6.10463 15.5425 6.11126 15.5346 6.11743 15.5264L6.12927 15.514C6.16672 15.4829 6.20248 15.4507 6.23656 15.4176C6.71534 14.9495 6.85203 14.3008 6.58751 13.762C6.56876 13.7238 6.54805 13.6861 6.52539 13.6492C6.47633 13.5101 6.40006 13.3822 6.30102 13.273C6.20199 13.1637 6.08217 13.0752 5.94855 13.0126L5.82348 12.9473C5.81711 12.9429 5.81073 12.9383 5.80473 12.9334L5.79204 12.922C5.78627 12.9166 5.78058 12.9111 5.77531 12.9052L5.76471 12.892C5.75933 12.885 5.75434 12.8778 5.74976 12.8702L5.74039 12.8524C5.73668 12.8447 5.7334 12.8368 5.73057 12.8287L5.72458 12.8083L5.70732 12.7202L5.79469 12.7074L13.9381 12.7058C14.0413 12.7058 14.146 12.7037 14.2474 12.7017L14.3994 12.6989C15.2931 12.7371 15.9057 13.228 16.0425 14.0119C16.0809 14.232 16.0827 14.4569 16.0477 14.6776C15.929 15.4513 15.2747 15.8217 14.7468 15.9962L14.7354 16ZM5.85673 15.852H14.7115C15.1982 15.6891 15.7948 15.3496 15.9013 14.6551C15.9338 14.4503 15.9322 14.2415 15.8966 14.0373C15.7727 13.3268 15.2122 12.8818 14.3973 12.8467L14.2578 12.8494C14.148 12.8516 14.0423 12.8537 13.9382 12.8537L5.96105 12.8553L6.01057 12.8782C6.07213 12.907 6.13127 12.9407 6.18744 12.9789C6.40404 13.1263 6.56864 13.3381 6.65784 13.5842C6.68103 13.6205 6.70199 13.6581 6.7206 13.6969C7.0138 14.2939 6.86549 15.0097 6.34287 15.5205C6.3053 15.5572 6.26862 15.5903 6.23047 15.6223C6.2225 15.6325 6.21417 15.6421 6.20546 15.6513C6.14885 15.7071 6.08189 15.7514 6.00833 15.7816L5.88168 15.8389L5.83429 15.7801L5.86811 15.846L5.85673 15.852ZM5.82669 15.852H5.84352L5.79613 15.8014L5.82669 15.852ZM5.78114 15.852H5.79151L5.76121 15.8248L5.78114 15.852Z" fill="#2B2129"/>
<path d="M13.1031 7.45029C13.0103 7.49674 12.9061 7.51564 12.8029 7.50477C11.8744 7.49808 10.9302 7.49911 10.0172 7.50016C9.67554 7.50055 9.3339 7.5008 8.99224 7.50093C8.65264 7.50072 8.31283 7.50043 7.97282 7.50008C7.74952 7.49978 7.52456 7.49953 7.29794 7.49932C6.6188 7.49883 5.92904 7.49954 5.24791 7.50502C5.13941 7.51662 5.02985 7.49704 4.93211 7.44859C4.89987 7.42274 4.87494 7.38893 4.85979 7.3505C4.84464 7.31208 4.83979 7.27037 4.84572 7.22949C4.84121 7.1924 4.84635 7.15478 4.86064 7.12025C4.87494 7.08573 4.8979 7.05547 4.92732 7.03241C4.93476 7.02739 4.94253 7.02287 4.95057 7.01889C5.04328 6.98403 5.14246 6.96972 5.24124 6.97696H5.24677C7.92707 6.98301 10.3982 6.9828 12.8016 6.97647C12.9058 6.96614 13.0108 6.98541 13.1045 7.03207C13.135 7.0566 13.1587 7.08866 13.1732 7.12509C13.1876 7.16153 13.1924 7.2011 13.1869 7.23991C13.1924 7.27923 13.1876 7.3193 13.1729 7.35619C13.1582 7.39308 13.1341 7.42551 13.1031 7.45029Z" fill="#C2956D"/>
<path d="M5.23459 7.57902C5.11564 7.59023 4.99601 7.56617 4.89066 7.50985C4.84875 7.47691 4.81586 7.43392 4.79506 7.38486C4.77426 7.33581 4.76622 7.28229 4.77169 7.2293C4.7669 7.18011 4.77488 7.13053 4.79485 7.08532C4.81482 7.04011 4.84611 7.0008 4.88571 6.97119C4.89588 6.96432 4.9065 6.95814 4.91749 6.95268C5.02027 6.91195 5.13094 6.89496 5.24123 6.90297C7.91856 6.909 10.3897 6.90889 12.8014 6.90248C12.9205 6.89069 13.0405 6.9145 13.1461 6.97089C13.1825 7.00593 13.2115 7.04797 13.2312 7.0945C13.251 7.14103 13.2611 7.19106 13.2609 7.24159C13.2607 7.29212 13.2504 7.3421 13.2303 7.38851C13.2103 7.43491 13.1811 7.47679 13.1444 7.5116C13.0396 7.56749 12.9205 7.59085 12.8024 7.57871C11.8699 7.57198 10.9281 7.57307 10.0173 7.57411L8.99225 7.57492L7.2979 7.57331C6.61896 7.57284 5.92943 7.57353 5.24844 7.57899L5.23459 7.57902ZM5.24662 7.05092C5.15753 7.04412 5.06801 7.05575 4.98362 7.08506C4.97854 7.08759 4.97363 7.09044 4.96892 7.0936C4.94616 7.10905 4.92005 7.13847 4.91977 7.22971C4.91952 7.33646 4.94682 7.36929 4.97355 7.38732C5.05933 7.42596 5.15387 7.44106 5.24743 7.43109C5.92861 7.42561 6.61868 7.42492 7.29801 7.42539L8.99231 7.42697L10.017 7.4262C10.9282 7.42515 11.8703 7.42409 12.8034 7.4308C12.8916 7.44021 12.9808 7.42576 13.0616 7.38898C13.0869 7.37197 13.1127 7.34093 13.1128 7.23985C13.1129 7.14072 13.0876 7.1101 13.0628 7.09326C12.9809 7.05652 12.8908 7.04177 12.8014 7.05046C10.3899 7.05679 7.91862 7.05695 5.24662 7.05092Z" fill="#2B2129"/>
<path d="M5.21931 9.90292H5.22403C7.76645 9.91001 10.3193 9.90996 12.8118 9.90283H12.8168C13.1274 9.90283 13.182 9.9875 13.1863 10.1764C13.192 10.2141 13.1878 10.2526 13.174 10.2882C13.1602 10.3237 13.1373 10.355 13.1076 10.3789C13.0101 10.4282 12.9002 10.4478 12.7916 10.4352C11.8699 10.4288 10.9327 10.4298 10.0263 10.4307C9.35086 10.4315 8.67542 10.4315 7.99996 10.4307C7.77354 10.4305 7.54546 10.4302 7.3157 10.43C6.62712 10.4296 5.92762 10.4303 5.23689 10.4352C5.13027 10.4469 5.02252 10.4276 4.92664 10.3796C4.89636 10.3553 4.87299 10.3236 4.85888 10.2875C4.84478 10.2514 4.84043 10.2122 4.84627 10.1739C4.84884 9.99051 4.90543 9.90292 5.21931 9.90292Z" fill="#C2956D"/>
<path d="M5.21925 10.5092C5.10338 10.5202 4.98689 10.4963 4.88477 10.4405C4.84476 10.4091 4.81343 10.3681 4.79376 10.3213C4.77408 10.2744 4.76671 10.2233 4.77235 10.1728C4.77586 9.92215 4.89703 9.82895 5.21944 9.82895H5.22415C7.764 9.83603 10.3167 9.836 12.8117 9.82886C13.1386 9.82886 13.2547 9.91937 13.2604 10.1748C13.2668 10.2247 13.2599 10.2755 13.2406 10.322C13.2212 10.3685 13.1899 10.4091 13.1499 10.4397C13.0403 10.4991 12.915 10.5233 12.7911 10.5091C11.8655 10.5027 10.9307 10.5037 10.0265 10.5046C9.35103 10.5054 8.67552 10.5054 8.00002 10.5046L7.31574 10.504C6.62729 10.5035 5.92804 10.5042 5.23749 10.5091C5.23134 10.5092 5.22526 10.5092 5.21925 10.5092ZM5.21944 9.90292V9.97689C4.9232 9.97689 4.92215 10.0514 4.92041 10.1749C4.91905 10.2713 4.94411 10.3017 4.96873 10.3186C5.05256 10.3563 5.14493 10.371 5.23633 10.3612C5.92741 10.3563 6.62702 10.3556 7.31586 10.356L8.00021 10.3567C8.67567 10.3574 9.35107 10.3574 10.0264 10.3567C10.9308 10.3557 11.866 10.3547 12.7923 10.3611C12.8856 10.3717 12.9801 10.3568 13.0656 10.3182C13.0885 10.3023 13.1146 10.272 13.1124 10.1781C13.1094 10.0483 13.1079 9.97684 12.8169 9.97684C10.3169 9.98398 7.76387 9.98401 5.22394 9.97692L5.21944 9.90292Z" fill="#2B2129"/>
<path d="M5.21837 8.44031H5.22316C7.76033 8.44732 10.3133 8.44731 12.8111 8.44031H12.8161C13.1278 8.44031 13.1824 8.5239 13.1862 8.71037C13.1919 8.74798 13.1875 8.78641 13.1735 8.82178C13.1595 8.85715 13.1365 8.88822 13.1066 8.91185C13.0093 8.95988 12.9004 8.97923 12.7925 8.96764C11.8614 8.96152 10.9146 8.96243 9.99921 8.96339C9.32499 8.96411 8.65076 8.96411 7.97653 8.96339C7.07877 8.96246 6.15039 8.96146 5.23751 8.96772C5.13081 8.9795 5.02298 8.96029 4.92693 8.91238C4.89687 8.88847 4.8736 8.8571 4.85945 8.8214C4.8453 8.78571 4.84076 8.74693 4.84627 8.70894C4.84895 8.52711 4.90546 8.44031 5.21837 8.44031Z" fill="#C2956D"/>
<path d="M5.21728 9.04172C5.10233 9.05193 4.98692 9.02819 4.88536 8.97344C4.84493 8.94288 4.81321 8.90227 4.79338 8.85565C4.77355 8.80903 4.76629 8.75803 4.77233 8.70774C4.77602 8.45887 4.89694 8.36633 5.21846 8.36633H5.22324C7.76092 8.37336 10.3137 8.37333 12.811 8.36633C13.1389 8.36633 13.2552 8.45596 13.2604 8.70885C13.2666 8.75879 13.2595 8.8095 13.2399 8.85585C13.2203 8.9022 13.1888 8.94257 13.1486 8.97289C13.0392 9.03063 12.9152 9.05456 12.7922 9.04161C11.8543 9.03543 10.9113 9.03642 9.9994 9.03737C9.32513 9.03806 8.65086 9.03806 7.97659 9.03737H7.95501C7.06437 9.03644 6.14343 9.03549 5.23814 9.0417C5.23106 9.04171 5.22411 9.04172 5.21728 9.04172ZM5.21846 8.44031V8.51428C4.9233 8.51428 4.92221 8.58793 4.92038 8.70994C4.91898 8.805 4.94547 8.83534 4.9687 8.85115C5.05267 8.88889 5.1452 8.90356 5.23673 8.89365C6.14291 8.88744 7.06416 8.88838 7.95507 8.88932H7.97665C8.65081 8.89003 9.32498 8.89003 9.99916 8.88932C10.9114 8.88837 11.8546 8.88738 12.793 8.89356C12.8858 8.90319 12.9795 8.8884 13.0649 8.85066C13.0879 8.83489 13.1142 8.80479 13.1123 8.71176C13.1096 8.58433 13.1082 8.51415 12.8162 8.51415C10.3139 8.52121 7.76076 8.52122 5.22301 8.51415L5.21846 8.44031Z" fill="#2B2129"/>
<path d="M13.1074 11.8422C13.0283 11.8841 12.9391 11.9032 12.8497 11.8975C12.8316 11.8979 12.8126 11.898 12.7926 11.8978C11.8703 11.8914 10.9326 11.8924 10.0258 11.8933C9.35167 11.894 8.6776 11.894 8.00357 11.8933C7.09712 11.8924 6.1597 11.8913 5.23783 11.8978C5.13084 11.9094 5.02277 11.8902 4.92629 11.8426C4.89638 11.8186 4.87327 11.7873 4.85924 11.7517C4.84521 11.7161 4.84076 11.6774 4.84632 11.6396C4.84929 11.4574 4.90581 11.3704 5.2184 11.3704H5.22318C6.48975 11.3739 7.76132 11.3757 9.02891 11.3757C10.2965 11.3757 11.5601 11.3739 12.8109 11.3704H12.8159C13.1279 11.3704 13.1825 11.4541 13.1864 11.6408C13.1921 11.6783 13.1877 11.7167 13.1739 11.7521C13.16 11.7874 13.1371 11.8185 13.1074 11.8422Z" fill="#C2956D"/>
<path d="M5.22069 11.972C5.10434 11.9825 4.98744 11.9588 4.88441 11.9038C4.84414 11.8732 4.81258 11.8326 4.79288 11.7861C4.77318 11.7395 4.76603 11.6886 4.77214 11.6385C4.77619 11.3892 4.8971 11.2966 5.21825 11.2966C6.48979 11.3001 7.75995 11.3018 9.02873 11.3018C10.2963 11.3018 11.5598 11.3 12.8106 11.2965C13.1387 11.2965 13.255 11.3862 13.2603 11.6394C13.2666 11.6892 13.2596 11.7399 13.24 11.7862C13.2205 11.8326 13.1891 11.8729 13.149 11.9033C13.0584 11.9541 12.955 11.9778 12.8512 11.9715C12.8324 11.9719 12.8126 11.972 12.7918 11.9718C11.8744 11.9655 10.9412 11.9665 10.0387 11.9674C9.35157 11.9681 8.67746 11.9681 8.00336 11.9674C7.09413 11.9664 6.15832 11.9654 5.23821 11.9718C5.2323 11.9719 5.22645 11.972 5.22069 11.972ZM5.22283 11.4445C4.9234 11.4445 4.92222 11.5184 4.92021 11.6409C4.91872 11.7357 4.94491 11.7659 4.96793 11.7816C5.05234 11.8192 5.14517 11.8338 5.23704 11.8239C6.1579 11.8175 7.094 11.8185 7.99922 11.8195C8.67752 11.8202 9.35152 11.8202 10.0256 11.8195C10.9413 11.8185 11.8748 11.8175 12.793 11.8239C12.8124 11.8241 12.8306 11.824 12.8479 11.8236C12.9228 11.8286 12.9977 11.814 13.0653 11.7813C13.0882 11.7657 13.1142 11.7357 13.1122 11.6425C13.1096 11.5148 13.1081 11.4445 12.8158 11.4445C11.5564 11.4481 10.2904 11.4498 9.01755 11.4498C7.75353 11.4498 6.48579 11.448 5.22283 11.4445Z" fill="#2B2129"/>
<path d="M13.1074 5.98565C13.0283 6.02753 12.9391 6.04665 12.8497 6.04089C12.8316 6.04129 12.8126 6.0414 12.7926 6.0412C11.8703 6.03482 10.9326 6.03585 10.0258 6.03676C9.35167 6.03744 8.6776 6.03744 8.00357 6.03676C7.09712 6.03579 6.1597 6.03477 5.23782 6.0412C5.13084 6.05276 5.02277 6.03362 4.92629 5.986C4.89638 5.96208 4.87327 5.93075 4.85924 5.89513C4.84521 5.85951 4.84076 5.82084 4.84632 5.78297C4.84929 5.60083 4.90581 5.51385 5.2184 5.51385H5.22318C6.48975 5.51737 7.76132 5.51912 9.02891 5.51911C10.2965 5.51909 11.5601 5.51733 12.8109 5.51379H12.8159C13.1279 5.51379 13.1825 5.59749 13.1864 5.78421C13.1921 5.82176 13.1878 5.86015 13.1739 5.89551C13.16 5.93086 13.1371 5.96195 13.1074 5.98565Z" fill="#C2956D"/>
<path d="M5.22071 6.11537C5.10436 6.12595 4.98745 6.10225 4.88441 6.04721C4.84414 6.01664 4.81258 5.97605 4.79288 5.9295C4.77318 5.88296 4.76603 5.83206 4.77214 5.78189C4.7762 5.53266 4.89711 5.44 5.21825 5.44C6.48979 5.44352 7.75995 5.44527 9.02873 5.44525C10.2963 5.44525 11.5598 5.44348 12.8106 5.43994C13.1387 5.43994 13.255 5.52966 13.2603 5.7828C13.2666 5.83268 13.2596 5.88333 13.24 5.92966C13.2205 5.97599 13.1891 6.01637 13.149 6.04674C13.0584 6.09752 12.955 6.12118 12.8513 6.1149C12.8324 6.11533 12.8126 6.11544 12.7918 6.11522C11.8744 6.10891 10.9412 6.10988 10.0387 6.11078C9.35157 6.11148 8.67746 6.11151 8.00336 6.11078C7.09413 6.10981 6.15833 6.1088 5.23821 6.11522C5.23232 6.11534 5.22646 6.11537 5.22071 6.11537ZM5.22283 5.58795C4.9234 5.58795 4.92222 5.66185 4.92021 5.78429C4.91873 5.87913 4.94491 5.90932 4.96793 5.92504C5.05234 5.96257 5.14518 5.97716 5.23704 5.96735C6.1579 5.9609 7.094 5.9619 7.99922 5.96291C8.67752 5.96365 9.35152 5.96362 10.0256 5.96291C10.9413 5.96195 11.8748 5.96097 12.793 5.96735C12.8124 5.96754 12.8306 5.96744 12.8479 5.96705C12.9228 5.97201 12.9977 5.95743 13.0653 5.92474C13.0882 5.90909 13.1142 5.87914 13.1122 5.78593C13.1096 5.65825 13.1081 5.58793 12.8158 5.58793C11.556 5.59147 10.2894 5.59324 9.01595 5.59325C7.75245 5.5932 6.48532 5.59146 5.22283 5.58795Z" fill="#2B2129"/>
<path d="M13.1074 4.52312C13.0283 4.56502 12.9391 4.58414 12.8497 4.57837C12.8316 4.57878 12.8126 4.57888 12.7926 4.57868C11.8703 4.57232 10.9326 4.57334 10.0258 4.57424C9.35167 4.57492 8.6776 4.57492 8.00357 4.57424C7.09712 4.57326 6.1597 4.57224 5.23783 4.57868C5.13084 4.59026 5.02277 4.57111 4.92629 4.52348C4.89638 4.49956 4.87327 4.46823 4.85924 4.43261C4.84521 4.397 4.84076 4.35833 4.84632 4.32046C4.84929 4.13832 4.90581 4.05134 5.2184 4.05134H5.22318C6.48975 4.05485 7.76132 4.05661 9.02891 4.0566C10.2965 4.05658 11.5601 4.05481 12.8109 4.05127H12.8159C13.1279 4.05127 13.1825 4.13496 13.1864 4.32169C13.1921 4.35924 13.1878 4.39762 13.1739 4.43298C13.16 4.46834 13.1371 4.49943 13.1074 4.52312Z" fill="#C2956D"/>
<path d="M5.22071 4.65274C5.10435 4.66332 4.98745 4.63962 4.88441 4.58458C4.84414 4.554 4.81258 4.51342 4.79288 4.46687C4.77318 4.42031 4.76603 4.36942 4.77214 4.31925C4.7762 4.07003 4.8971 3.97737 5.21825 3.97737C6.48979 3.98088 7.75995 3.98263 9.02873 3.98262C10.2963 3.98262 11.5598 3.98083 12.8106 3.97729C13.1387 3.97729 13.255 4.06701 13.2603 4.32015C13.2666 4.37003 13.2596 4.42069 13.24 4.46702C13.2205 4.51335 13.1891 4.55374 13.149 4.58411C13.0584 4.63489 12.955 4.65856 12.8513 4.65228C12.8324 4.65271 12.8126 4.65281 12.7918 4.65261C11.8744 4.64627 10.9412 4.64727 10.0387 4.64817C9.35157 4.64886 8.67746 4.64888 8.00336 4.64817C7.09413 4.64719 6.15833 4.64619 5.23821 4.65261C5.23232 4.65271 5.22646 4.65274 5.22071 4.65274ZM5.22283 4.12532C4.9234 4.12532 4.92222 4.19929 4.92021 4.32166C4.91873 4.41648 4.94491 4.44669 4.96793 4.4624C5.05234 4.49993 5.14518 4.51453 5.23704 4.50472C6.1579 4.49827 7.094 4.49927 7.99922 4.50028C8.67752 4.501 9.35152 4.50099 10.0256 4.50028C10.9413 4.49932 11.8748 4.49833 12.793 4.50472C12.8124 4.50489 12.8306 4.50481 12.8479 4.50442C12.9228 4.50938 12.9977 4.4948 13.0653 4.46211C13.0882 4.44644 13.1142 4.41651 13.1123 4.32329C13.1096 4.19562 13.1081 4.12529 12.8158 4.12529C11.5565 4.12884 10.2904 4.13061 9.01757 4.13061C7.75353 4.13057 6.4858 4.12882 5.22283 4.12532Z" fill="#2B2129"/>
<path d="M13.1074 3.06048C13.0283 3.10236 12.9391 3.12149 12.8497 3.11572C12.8316 3.11612 12.8126 3.11623 12.7926 3.11603C11.8703 3.10967 10.9326 3.11069 10.0258 3.11159C9.35167 3.11228 8.6776 3.11228 8.00357 3.11159C7.09712 3.11062 6.1597 3.10959 5.23782 3.11603C5.13084 3.1276 5.02277 3.10845 4.92629 3.06083C4.89638 3.03691 4.87327 3.00558 4.85924 2.96996C4.84521 2.93434 4.84076 2.89567 4.84632 2.8578C4.84929 2.67566 4.90581 2.58868 5.2184 2.58868H5.22318C6.48975 2.5922 7.76132 2.59395 9.02891 2.59395C10.2965 2.59395 11.5601 2.59216 12.8109 2.58862H12.8159C13.1279 2.58862 13.1825 2.67232 13.1864 2.85904C13.1921 2.89659 13.1878 2.93498 13.1739 2.97033C13.16 3.00569 13.1371 3.03678 13.1074 3.06048Z" fill="#C2956D"/>
<path d="M5.22073 3.19008C5.10437 3.20066 4.98745 3.17696 4.88442 3.12192C4.84414 3.09134 4.81258 3.05076 4.79288 3.00421C4.77318 2.95766 4.76603 2.90677 4.77214 2.8566C4.7762 2.60737 4.89711 2.51471 5.21825 2.51471C6.48979 2.51823 7.75995 2.51998 9.02873 2.51997C10.2963 2.51997 11.5598 2.51818 12.8106 2.51465C13.1387 2.51465 13.255 2.60436 13.2603 2.8575C13.2666 2.90739 13.2596 2.95804 13.24 3.00437C13.2205 3.05071 13.1891 3.09109 13.149 3.12146C13.0584 3.17224 12.955 3.1959 12.8513 3.18963C12.8324 3.19005 12.8126 3.19016 12.7918 3.18996C11.8738 3.18363 10.94 3.1846 10.037 3.18552C9.35157 3.18623 8.67747 3.18625 8.00336 3.18552C7.09414 3.18455 6.15833 3.18354 5.23821 3.18996C5.23232 3.19005 5.22647 3.19008 5.22073 3.19008ZM5.22283 2.66266C4.92341 2.66266 4.92222 2.73663 4.92021 2.859C4.91873 2.95383 4.94491 2.98403 4.96793 2.99976C5.05235 3.03728 5.14518 3.05187 5.23704 3.04206C6.1579 3.03561 7.094 3.03661 7.99922 3.03762C8.67752 3.03836 9.35152 3.03834 10.0256 3.03762C10.9402 3.03666 11.8742 3.03568 12.793 3.04206C12.8124 3.04225 12.8306 3.04214 12.8479 3.04176C12.9228 3.04672 12.9977 3.03214 13.0653 2.99946C13.0882 2.98379 13.1142 2.95386 13.1123 2.86064C13.1096 2.73296 13.1081 2.66264 12.8158 2.66264C11.5565 2.66619 10.2904 2.66797 9.01757 2.66797C7.75353 2.66792 6.4858 2.66616 5.22283 2.66266Z" fill="#2B2129"/>
</svg>
