<svg version="1.2" xmlns="http://www.w3.org/2000/svg" viewBox="0 0 18 18" width="18" height="18">
	<title>logo-light</title>
	<defs>
		<clipPath clipPathUnits="userSpaceOnUse" id="cp1">
			<path d="m58.38 0v18h-58.38v-18z"/>
		</clipPath>
		<clipPath clipPathUnits="userSpaceOnUse" id="cp2">
			<path d="m58.38 0v18h-58.38v-18z"/>
		</clipPath>
	</defs>
	<style>
		.s0 { fill: #000000 } 
	</style>
	<g id="Clip-Path" clip-path="url(#cp1)">
		<g>
			<g id="Clip-Path" clip-path="url(#cp2)">
				<g>
					<path class="s0" d="m10.8 11.2c-3.4 1-6.2 2.5-7.9 4.2l-0.1 0.1q0.7 0.7 1.5 1.2l0.1-0.2q0.7-0.8 1.6-1.6c1.4-1.5 3-2.7 4.8-3.7z"/>
					<path class="s0" d="m0 9.7c0.1 1.8 0.8 3.5 1.9 4.8q1.7-1.7 4.2-2.9c1.5-0.8 3.2-1.4 5.1-1.9z"/>
					<path class="s0" d="m6.9 2.2c3 3 6.9 5 11 5.8-0.5-4.5-4.3-8-8.9-8-1.2 0-2.4 0.2-3.5 0.7q0.7 0.8 1.4 1.5z"/>
					<path class="s0" d="m2.9 2.6c1.7 1.7 4.5 3.2 7.9 4.2-1.8-1-3.4-2.2-4.8-3.7q-0.9-0.8-1.6-1.6l-0.1-0.2q-0.8 0.5-1.5 1.2z"/>
					<path class="s0" d="m6.9 15.8q-0.7 0.7-1.4 1.5c1.1 0.5 2.3 0.7 3.5 0.7 4.6 0 8.4-3.5 8.9-8-4.1 0.8-8 2.8-11 5.8z"/>
					<path class="s0" d="m6.1 6.4q-2.5-1.2-4.2-2.9c-1.1 1.3-1.8 3-1.9 4.8h11.2c-1.9-0.5-3.6-1.1-5.1-1.9z"/>
				</g>
			</g>
		</g>
	</g>
</svg>