<svg width="16" height="16" viewBox="0 0 16 16" fill="none" xmlns="http://www.w3.org/2000/svg">
<path d="M8 1.22222C8.33029 1.22117 8.65427 1.31261 8.93527 1.4862C9.21627 1.6598 9.44305 1.9086 9.58993 2.20444L14.5897 12.2044C14.7253 12.4755 14.7894 12.7767 14.7759 13.0795C14.7623 13.3823 14.6716 13.6766 14.5123 13.9345C14.3529 14.1923 14.1304 14.4051 13.8656 14.5527C13.6009 14.7003 13.3029 14.7778 12.9998 14.7778H3.00021C2.69713 14.7778 2.39907 14.7003 2.13436 14.5527C1.86964 14.4051 1.64705 14.1923 1.48774 13.9345C1.32843 13.6766 1.23769 13.3823 1.22413 13.0795C1.21057 12.7767 1.27465 12.4755 1.41028 12.2044L6.41007 2.20444C6.55695 1.9086 6.78373 1.6598 7.06473 1.4862C7.34573 1.31261 7.66971 1.22117 8 1.22222ZM8 1.95635e-08C7.44294 -6.35896e-05 6.89687 0.154989 6.42296 0.447787C5.94904 0.740585 5.56601 1.15956 5.31678 1.65778L0.316996 11.6578C0.0881777 12.1152 -0.0199052 12.6235 0.00301432 13.1344C0.0259338 13.6454 0.179095 14.142 0.447948 14.5771C0.716802 15.0121 1.09242 15.3713 1.53912 15.6203C1.98583 15.8694 2.48878 16.0001 3.00021 16H12.9998C13.5112 16.0001 14.0142 15.8694 14.4609 15.6203C14.9076 15.3713 15.2832 15.0121 15.5521 14.5771C15.8209 14.142 15.9741 13.6454 15.997 13.1344C16.0199 12.6235 15.9118 12.1152 15.683 11.6578L10.6832 1.65778C10.434 1.15956 10.051 0.740585 9.57705 0.447787C9.10313 0.154989 8.55706 -6.35896e-05 8 1.95635e-08V1.95635e-08Z" fill="#70D44B"/>
</svg>
