<svg width="18" height="16" viewBox="0 0 18 16" fill="none" xmlns="http://www.w3.org/2000/svg">
<path d="M13.3593 11.268L17.6273 8.7939C17.8535 8.66247 17.9934 8.41876 17.9934 8.15718V3.20893C17.9934 2.94735 17.8535 2.70364 17.6273 2.57221L13.3593 0.0980917C13.1331 -0.0333345 12.8522 -0.0320585 12.6272 0.0980917L8.35927 2.57221C8.13303 2.70364 7.99323 2.94735 7.99323 3.20893V12.0515L5.00005 13.7855L2.00688 12.0515V8.58208L5.00005 6.84803L6.9739 7.99258V5.66519L5.3661 4.73245C5.25552 4.66865 5.12842 4.6342 5.00005 4.6342C4.87168 4.6342 4.74459 4.66865 4.63401 4.73245L0.366044 7.20658C0.139808 7.338 0 7.58172 0 7.84329V12.7915C0 13.0531 0.139808 13.2968 0.366044 13.4283L4.63401 15.9024C4.86025 16.0325 5.13986 16.0325 5.3661 15.9024L9.63407 13.4283C9.8603 13.2968 10.0001 13.0531 10.0001 12.7915V3.949L10.0535 3.91837L12.992 2.21494L15.9852 3.949V7.41839L12.992 9.15245L11.0207 8.01045V10.3378L12.626 11.268C12.8522 11.3982 13.1331 11.3982 13.3581 11.268H13.3593Z" fill="url(#paint0_linear_3433_199)"/>
<defs>
<linearGradient id="paint0_linear_3433_199" x1="-0.0584658" y1="13.2764" x2="17.2547" y2="3.26662" gradientUnits="userSpaceOnUse">
<stop stop-color="#A726C1"/>
<stop offset="0.88" stop-color="#803BDF"/>
<stop offset="1" stop-color="#7B3FE4"/>
</linearGradient>
</defs>
</svg>
